<svg version="1.1" id="Layer_1" xmlns="http://www.w3.org/2000/svg" xmlns:xlink="http://www.w3.org/1999/xlink" x="0px" y="0px"
	 width="100%" viewBox="0 0 271 347" enable-background="new 0 0 271 347" xml:space="preserve">
<path fill="#FDFDFD" opacity="1.000000" stroke="none" 
	d="
M139.000000,348.000000 
	C92.666687,348.000000 46.833370,348.000000 1.000043,348.000000 
	C1.000029,232.333405 1.000029,116.666801 1.000014,1.000152 
	C91.333229,1.000101 181.666458,1.000101 271.999756,1.000051 
	C271.999847,116.666512 271.999847,232.333023 271.999939,347.999756 
	C227.833328,348.000000 183.666672,348.000000 139.000000,348.000000 
M179.933807,80.345383 
	C185.421600,78.508163 190.860275,76.500679 196.415649,74.897667 
	C199.741669,73.937935 201.830215,75.169899 202.861908,78.964737 
	C205.229004,87.671463 205.987015,96.259041 203.398895,105.040909 
	C203.050781,106.222130 203.365723,108.101349 204.132568,109.032028 
	C213.396271,120.275215 215.846436,133.320633 214.958633,147.443359 
	C213.223251,175.048950 200.436798,190.966064 173.750580,198.166473 
	C169.370132,199.348404 164.848923,200.008728 159.956070,200.998474 
	C166.359833,208.004822 167.747604,216.132919 167.766983,224.614639 
	C167.790588,234.943741 167.550598,245.273239 167.538620,255.602692 
	C167.530991,262.180328 171.121536,264.724609 177.273727,262.577332 
	C180.253723,261.537262 183.213287,260.397491 186.080597,259.081665 
	C248.474930,230.448380 275.609802,160.325531 248.768646,97.153412 
	C223.279465,37.163239 151.844650,7.984244 91.756348,33.018570 
	C10.838942,66.730827 -10.040256,171.694702 51.848999,233.770523 
	C64.865379,246.826187 80.146385,256.363983 97.516663,262.535126 
	C102.954079,264.466888 106.958427,262.613464 107.153969,257.681030 
	C107.455750,250.068848 107.233482,242.435898 107.233482,234.878922 
	C102.275398,235.242142 97.955643,235.883545 93.647430,235.813660 
	C80.366882,235.598221 70.239883,230.503021 65.169418,217.302780 
	C62.689091,210.845566 58.683083,205.287872 52.456718,201.732269 
	C50.456734,200.590164 48.400528,199.546524 46.370041,198.457840 
	C46.975502,197.484497 47.580963,196.511169 48.186424,195.537827 
	C50.491047,195.280045 52.852539,194.566818 55.090080,194.846222 
	C63.190754,195.857788 68.455643,200.987762 72.624199,207.580933 
	C80.343338,219.789917 92.350304,223.659790 105.368912,218.052933 
	C106.501671,217.565063 107.562164,216.257294 108.066872,215.078125 
	C110.067757,210.403351 111.834297,205.628296 113.818832,200.555191 
	C112.778442,200.411057 111.015602,200.201752 109.264656,199.918839 
	C93.718628,197.406860 79.645287,192.209122 70.013184,178.702103 
	C59.502934,163.963669 53.772999,129.108047 70.562950,109.561905 
	C71.528099,108.438316 71.996300,106.145897 71.590797,104.709335 
	C69.250572,96.418465 69.992249,88.354286 71.900917,80.072845 
	C73.074493,74.980835 75.950729,73.581573 80.020630,75.090004 
	C87.756104,77.956993 95.338089,81.300224 102.775452,84.878754 
	C105.727486,86.299141 108.143196,87.217728 111.614418,86.445801 
	C125.694832,83.314621 140.041290,81.807373 154.233078,84.980911 
	C163.477722,87.048172 171.752075,86.979591 179.933807,80.345383 
M69.418213,332.273743 
	C74.497887,331.929047 79.609886,331.807831 84.634338,331.081299 
	C85.879257,330.901276 87.718880,328.802765 87.783714,327.510773 
	C88.107742,321.053680 87.931961,314.571503 87.931961,307.777100 
	C82.845222,307.777100 78.101669,307.777100 73.192268,307.777100 
	C73.192268,310.375214 73.192268,312.771820 73.192268,315.379913 
	C75.217621,315.559448 76.962837,315.714172 78.600998,315.859375 
	C78.600998,318.757690 78.600998,321.328827 78.600998,323.850159 
	C69.303940,324.897888 65.474472,322.147827 65.301262,313.386993 
	C65.216362,309.092957 65.710808,303.988586 67.979271,300.623627 
	C71.944145,294.742279 78.780090,297.717133 84.622559,298.046112 
	C85.214233,295.479797 85.724030,293.268646 86.504578,289.883148 
	C81.458275,289.488434 76.923630,288.847473 72.388428,288.843536 
	C64.865494,288.837006 59.073929,292.566284 57.632771,299.834534 
	C56.311935,306.495880 56.306213,313.650513 57.092594,320.428680 
	C57.810059,326.612854 62.294628,330.646881 69.418213,332.273743 
M158.060135,325.409149 
	C158.060135,313.686615 158.060135,301.964111 158.060135,290.327332 
	C154.623734,290.327332 152.014816,290.327332 148.831024,290.327332 
	C148.831024,295.595703 148.831024,300.645050 148.831024,305.710999 
	C144.646942,305.710999 141.055435,305.710999 136.880264,305.710999 
	C136.880264,300.446747 136.880264,295.404144 136.880264,290.435150 
	C133.553925,290.435150 130.826691,290.435150 128.257446,290.435150 
	C128.257446,304.494629 128.257446,318.199341 128.257446,331.785950 
	C131.273911,331.785950 133.882431,331.785950 137.091599,331.785950 
	C137.091599,325.844269 137.091599,320.134552 137.091599,314.379272 
	C141.278900,314.379272 144.855515,314.379272 149.019241,314.379272 
	C149.019241,320.355469 149.019241,326.071808 149.019241,331.672729 
	C152.346390,331.672729 155.069504,331.672729 158.060135,331.672729 
	C158.060135,329.673218 158.060135,328.027252 158.060135,325.409149 
M194.622131,290.076050 
	C193.715729,290.722473 192.358948,291.190216 192.014160,292.059418 
	C191.557907,293.209534 191.889709,294.673798 191.889603,296.003052 
	C191.888550,307.916931 191.888977,319.830780 191.888977,331.643402 
	C195.574539,331.643402 198.878845,330.927124 201.720337,331.770386 
	C212.611908,335.002594 218.537567,331.075897 219.085861,319.725922 
	C219.790787,305.133881 215.585693,301.310394 200.924194,303.730743 
	C200.924194,299.246887 200.924194,294.833496 200.924194,290.075867 
	C198.815689,290.075867 197.186157,290.075867 194.622131,290.076050 
M187.736801,304.214386 
	C184.916382,303.963623 182.095947,303.712830 179.030487,303.440247 
	C179.030487,309.831299 178.838715,315.317322 179.100800,320.781616 
	C179.263809,324.180359 177.684967,325.161682 174.742218,325.281189 
	C171.560043,325.410400 170.812134,323.620209 170.847763,320.874664 
	C170.920456,315.273895 170.869537,309.671539 170.869537,303.814880 
	C167.648376,303.814880 164.911682,303.814880 161.893875,303.814880 
	C161.893875,310.899994 161.722122,317.700958 161.948700,324.488647 
	C162.127045,329.831421 164.915176,332.664551 170.602753,332.691711 
	C176.274567,332.718811 181.950607,331.862427 187.974716,331.364471 
	C187.974716,322.637970 187.974716,313.859650 187.736801,304.214386 
M122.974121,303.572876 
	C121.370071,303.445862 119.766022,303.318848 118.029900,303.181366 
	C117.877190,300.516541 117.739410,298.112183 117.596214,295.613464 
	C114.522385,295.613464 111.921150,295.613464 109.308617,295.613464 
	C109.104973,296.289856 108.878532,296.742004 108.842987,297.208679 
	C108.610046,300.266235 110.056793,303.961304 105.035019,304.987122 
	C104.301224,305.136993 104.249168,308.624298 103.897568,310.483276 
	C106.037376,311.032959 107.385056,311.379181 108.807304,311.744537 
	C108.807304,315.236816 108.788597,318.392487 108.810776,321.547913 
	C108.879669,331.351959 114.513809,335.065674 123.939880,331.482330 
	C123.939880,329.556702 123.939880,327.622284 123.939880,325.732391 
	C117.388016,324.647308 116.127235,321.092529 118.576759,311.250153 
	C120.331390,311.082367 122.086029,310.914581 124.177116,310.714600 
	C124.022873,308.246307 123.890411,306.126526 122.974121,303.572876 
M93.066154,303.684601 
	C92.599556,312.960358 92.132957,322.236115 91.652115,331.794983 
	C95.407768,331.794983 98.149422,331.794983 101.083878,331.794983 
	C101.083878,322.351379 101.083878,313.126984 101.083878,303.482758 
	C98.500122,303.482758 96.207497,303.482758 93.066154,303.684601 
M97.339180,291.143250 
	C94.075111,291.312073 91.602592,292.835114 92.005646,296.239441 
	C92.206764,297.938202 94.096519,300.493622 95.530754,300.721558 
	C97.312164,301.004639 100.272682,299.810791 101.196518,298.312866 
	C103.131927,295.174744 101.383934,292.662354 97.339180,291.143250 
z"/>
<path fill="#030303" opacity="1.000000" stroke="none" 
	d="
M179.623047,80.554222 
	C171.752075,86.979591 163.477722,87.048172 154.233078,84.980911 
	C140.041290,81.807373 125.694832,83.314621 111.614418,86.445801 
	C108.143196,87.217728 105.727486,86.299141 102.775452,84.878754 
	C95.338089,81.300224 87.756104,77.956993 80.020630,75.090004 
	C75.950729,73.581573 73.074493,74.980835 71.900917,80.072845 
	C69.992249,88.354286 69.250572,96.418465 71.590797,104.709335 
	C71.996300,106.145897 71.528099,108.438316 70.562950,109.561905 
	C53.772999,129.108047 59.502934,163.963669 70.013184,178.702103 
	C79.645287,192.209122 93.718628,197.406860 109.264656,199.918839 
	C111.015602,200.201752 112.778442,200.411057 113.818832,200.555191 
	C111.834297,205.628296 110.067757,210.403351 108.066872,215.078125 
	C107.562164,216.257294 106.501671,217.565063 105.368912,218.052933 
	C92.350304,223.659790 80.343338,219.789917 72.624199,207.580933 
	C68.455643,200.987762 63.190754,195.857788 55.090080,194.846222 
	C52.852539,194.566818 50.491047,195.280045 48.186424,195.537827 
	C47.580963,196.511169 46.975502,197.484497 46.370041,198.457840 
	C48.400528,199.546524 50.456734,200.590164 52.456718,201.732269 
	C58.683083,205.287872 62.689091,210.845566 65.169418,217.302780 
	C70.239883,230.503021 80.366882,235.598221 93.647430,235.813660 
	C97.955643,235.883545 102.275398,235.242142 107.233482,234.878922 
	C107.233482,242.435898 107.455750,250.068848 107.153969,257.681030 
	C106.958427,262.613464 102.954079,264.466888 97.516663,262.535126 
	C80.146385,256.363983 64.865379,246.826187 51.848999,233.770523 
	C-10.040256,171.694702 10.838942,66.730827 91.756348,33.018570 
	C151.844650,7.984244 223.279465,37.163239 248.768646,97.153412 
	C275.609802,160.325531 248.474930,230.448380 186.080597,259.081665 
	C183.213287,260.397491 180.253723,261.537262 177.273727,262.577332 
	C171.121536,264.724609 167.530991,262.180328 167.538620,255.602692 
	C167.550598,245.273239 167.790588,234.943741 167.766983,224.614639 
	C167.747604,216.132919 166.359833,208.004822 159.956070,200.998474 
	C164.848923,200.008728 169.370132,199.348404 173.750580,198.166473 
	C200.436798,190.966064 213.223251,175.048950 214.958633,147.443359 
	C215.846436,133.320633 213.396271,120.275215 204.132568,109.032028 
	C203.365723,108.101349 203.050781,106.222130 203.398895,105.040909 
	C205.987015,96.259041 205.229004,87.671463 202.861908,78.964737 
	C201.830215,75.169899 199.741669,73.937935 196.415649,74.897667 
	C190.860275,76.500679 185.421600,78.508163 179.623047,80.554222 
z"/>
<path fill="#0C0C0C" opacity="1.000000" stroke="none" 
	d="
M69.010956,332.200378 
	C62.294628,330.646881 57.810059,326.612854 57.092594,320.428680 
	C56.306213,313.650513 56.311935,306.495880 57.632771,299.834534 
	C59.073929,292.566284 64.865494,288.837006 72.388428,288.843536 
	C76.923630,288.847473 81.458275,289.488434 86.504578,289.883148 
	C85.724030,293.268646 85.214233,295.479797 84.622559,298.046112 
	C78.780090,297.717133 71.944145,294.742279 67.979271,300.623627 
	C65.710808,303.988586 65.216362,309.092957 65.301262,313.386993 
	C65.474472,322.147827 69.303940,324.897888 78.600998,323.850159 
	C78.600998,321.328827 78.600998,318.757690 78.600998,315.859375 
	C76.962837,315.714172 75.217621,315.559448 73.192268,315.379913 
	C73.192268,312.771820 73.192268,310.375214 73.192268,307.777100 
	C78.101669,307.777100 82.845222,307.777100 87.931961,307.777100 
	C87.931961,314.571503 88.107742,321.053680 87.783714,327.510773 
	C87.718880,328.802765 85.879257,330.901276 84.634338,331.081299 
	C79.609886,331.807831 74.497887,331.929047 69.010956,332.200378 
z"/>
<path fill="#060606" opacity="1.000000" stroke="none" 
	d="
M158.060135,325.895203 
	C158.060135,328.027252 158.060135,329.673218 158.060135,331.672729 
	C155.069504,331.672729 152.346390,331.672729 149.019241,331.672729 
	C149.019241,326.071808 149.019241,320.355469 149.019241,314.379272 
	C144.855515,314.379272 141.278900,314.379272 137.091599,314.379272 
	C137.091599,320.134552 137.091599,325.844269 137.091599,331.785950 
	C133.882431,331.785950 131.273911,331.785950 128.257446,331.785950 
	C128.257446,318.199341 128.257446,304.494629 128.257446,290.435150 
	C130.826691,290.435150 133.553925,290.435150 136.880264,290.435150 
	C136.880264,295.404144 136.880264,300.446747 136.880264,305.710999 
	C141.055435,305.710999 144.646942,305.710999 148.831024,305.710999 
	C148.831024,300.645050 148.831024,295.595703 148.831024,290.327332 
	C152.014816,290.327332 154.623734,290.327332 158.060135,290.327332 
	C158.060135,301.964111 158.060135,313.686615 158.060135,325.895203 
z"/>
<path fill="#090909" opacity="1.000000" stroke="none" 
	d="
M195.089371,290.075958 
	C197.186157,290.075867 198.815689,290.075867 200.924194,290.075867 
	C200.924194,294.833496 200.924194,299.246887 200.924194,303.730743 
	C215.585693,301.310394 219.790787,305.133881 219.085861,319.725922 
	C218.537567,331.075897 212.611908,335.002594 201.720337,331.770386 
	C198.878845,330.927124 195.574539,331.643402 191.888977,331.643402 
	C191.888977,319.830780 191.888550,307.916931 191.889603,296.003052 
	C191.889709,294.673798 191.557907,293.209534 192.014160,292.059418 
	C192.358948,291.190216 193.715729,290.722473 195.089371,290.075958 
M208.450821,311.143555 
	C202.371811,308.966522 200.933594,309.913910 200.916550,316.109711 
	C200.912415,317.609131 201.085251,319.132202 200.880524,320.603149 
	C200.434875,323.805145 201.733597,325.185638 204.927139,325.320007 
	C208.027328,325.450409 209.866379,324.125458 209.851349,321.099335 
	C209.835922,317.997223 209.281311,314.897766 208.450821,311.143555 
z"/>
<path fill="#0B0B0B" opacity="1.000000" stroke="none" 
	d="
M187.855759,304.647888 
	C187.974716,313.859650 187.974716,322.637970 187.974716,331.364471 
	C181.950607,331.862427 176.274567,332.718811 170.602753,332.691711 
	C164.915176,332.664551 162.127045,329.831421 161.948700,324.488647 
	C161.722122,317.700958 161.893875,310.899994 161.893875,303.814880 
	C164.911682,303.814880 167.648376,303.814880 170.869537,303.814880 
	C170.869537,309.671539 170.920456,315.273895 170.847763,320.874664 
	C170.812134,323.620209 171.560043,325.410400 174.742218,325.281189 
	C177.684967,325.161682 179.263809,324.180359 179.100800,320.781616 
	C178.838715,315.317322 179.030487,309.831299 179.030487,303.440247 
	C182.095947,303.712830 184.916382,303.963623 187.855759,304.647888 
z"/>
<path fill="#0E0E0E" opacity="1.000000" stroke="none" 
	d="
M123.366028,303.789795 
	C123.890411,306.126526 124.022873,308.246307 124.177116,310.714600 
	C122.086029,310.914581 120.331390,311.082367 118.575790,311.245850 
	C116.127235,321.092529 117.388016,324.647308 123.939880,325.732391 
	C123.939880,327.622284 123.939880,329.556702 123.939880,331.482330 
	C114.513809,335.065674 108.879669,331.351959 108.810776,321.547913 
	C108.788597,318.392487 108.807304,315.236816 108.807304,311.744537 
	C107.385056,311.379181 106.037376,311.032959 103.897568,310.483276 
	C104.249168,308.624298 104.301224,305.136993 105.035019,304.987122 
	C110.056793,303.961304 108.610046,300.266235 108.842987,297.208679 
	C108.878532,296.742004 109.104973,296.289856 109.308617,295.613464 
	C111.921150,295.613464 114.522385,295.613464 117.596214,295.613464 
	C117.739410,298.112183 117.877190,300.516541 118.029900,303.181366 
	C119.766022,303.318848 121.370071,303.445862 123.366028,303.789795 
z"/>
<path fill="#0C0C0C" opacity="1.000000" stroke="none" 
	d="
M93.490509,303.583679 
	C96.207497,303.482758 98.500122,303.482758 101.083878,303.482758 
	C101.083878,313.126984 101.083878,322.351379 101.083878,331.794983 
	C98.149422,331.794983 95.407768,331.794983 91.652115,331.794983 
	C92.132957,322.236115 92.599556,312.960358 93.490509,303.583679 
z"/>
<path fill="#151515" opacity="1.000000" stroke="none" 
	d="
M97.711197,291.227661 
	C101.383934,292.662354 103.131927,295.174744 101.196518,298.312866 
	C100.272682,299.810791 97.312164,301.004639 95.530754,300.721558 
	C94.096519,300.493622 92.206764,297.938202 92.005646,296.239441 
	C91.602592,292.835114 94.075111,291.312073 97.711197,291.227661 
z"/>
<path fill="#F2F2F2" opacity="1.000000" stroke="none" 
	d="
M208.706757,311.470337 
	C209.281311,314.897766 209.835922,317.997223 209.851349,321.099335 
	C209.866379,324.125458 208.027328,325.450409 204.927139,325.320007 
	C201.733597,325.185638 200.434875,323.805145 200.880524,320.603149 
	C201.085251,319.132202 200.912415,317.609131 200.916550,316.109711 
	C200.933594,309.913910 202.371811,308.966522 208.706757,311.470337 
z"/>
</svg>