<svg version="1.1" id="Layer_1" xmlns="http://www.w3.org/2000/svg" xmlns:xlink="http://www.w3.org/1999/xlink" x="0px" y="0px"
	 width="100%" viewBox="0 0 256 113" enable-background="new 0 0 256 113" xml:space="preserve">
<path fill="#EAEBEB" opacity="1.000000" stroke="none" 
	d="
M165.000000,114.000000 
	C110.000000,114.000000 55.500008,114.000000 1.000007,114.000000 
	C1.000005,76.333336 1.000005,38.666679 1.000002,1.000012 
	C86.333321,1.000008 171.666641,1.000008 257.000000,1.000004 
	C257.000000,38.666653 257.000000,76.333305 257.000000,113.999985 
	C226.500000,114.000000 196.000000,114.000000 165.000000,114.000000 
M184.379700,33.947376 
	C184.168930,34.222092 183.958160,34.496807 183.127060,35.390190 
	C183.058640,51.427929 182.964935,67.465675 182.971832,83.503380 
	C182.972366,84.729828 183.684143,85.955956 183.871643,87.147820 
	C183.871643,87.147820 184.095642,87.182671 184.333801,87.578072 
	C184.333801,87.578072 184.736710,87.803307 185.212082,88.346573 
	C201.514587,88.493416 217.817734,88.731674 234.118408,88.617058 
	C235.451477,88.607681 236.767639,86.192581 238.191910,83.976868 
	C238.199570,80.839043 238.240555,77.700874 238.209076,74.563446 
	C238.080078,61.704380 237.928986,48.845539 237.959198,35.491863 
	C236.181656,34.661163 234.406342,33.117107 232.626221,33.111546 
	C217.066956,33.062916 201.506805,33.289307 185.390152,33.571289 
	C185.228912,33.673962 185.067688,33.776630 184.379700,33.947376 
M89.736084,57.731773 
	C89.678169,58.480419 89.620255,59.229065 88.921875,59.830074 
	C84.730247,57.887402 86.052597,55.106026 87.897018,52.704742 
	C84.367256,52.162006 81.032104,51.245625 77.710831,51.293407 
	C75.790169,51.321041 73.891869,52.902748 71.547112,53.968678 
	C71.547112,53.968678 71.078804,54.038418 70.286919,53.981800 
	C66.858940,53.001694 63.422497,49.488327 59.772629,54.512733 
	C59.684490,54.674137 59.596355,54.835537 58.864243,54.961437 
	C55.290955,54.010975 55.973473,51.495930 56.130272,48.713024 
	C56.290390,45.871155 56.145313,42.597191 54.862461,40.189922 
	C53.107880,36.897438 50.497704,36.864620 48.782742,41.125156 
	C48.782742,41.125156 48.485062,41.122250 47.878048,41.246159 
	C47.598301,41.535488 47.318550,41.824818 47.045490,42.049789 
	C47.045490,42.049789 47.095718,42.091026 46.424633,42.143009 
	C43.461155,44.918545 39.851307,47.525528 44.843220,51.728966 
	C45.358452,52.162819 44.852104,53.811283 44.817730,54.896095 
	C44.764843,56.564995 44.239849,58.394447 44.744572,59.872559 
	C46.250214,64.281906 43.738617,67.587463 41.264389,70.093323 
	C39.886265,71.489067 35.589756,71.737114 33.861317,70.599258 
	C31.854914,69.278404 30.308882,65.924515 30.161436,63.361134 
	C29.700285,55.344025 29.992071,47.283604 29.992071,39.480068 
	C29.020338,39.480068 28.163219,39.722317 27.539440,39.443165 
	C20.050083,36.091522 15.996227,38.502544 16.006987,46.389603 
	C16.020500,56.294662 15.979885,66.201057 16.165314,76.103081 
	C16.189402,77.389420 17.420094,78.653160 17.999777,79.986092 
	C17.999777,79.986092 18.074348,79.905907 18.127775,80.653755 
	C19.560150,81.219597 20.980738,82.235565 22.426939,82.273430 
	C28.724640,82.438347 35.031311,82.398293 41.331779,82.278183 
	C46.740711,82.175072 52.145649,81.862274 57.552353,81.642197 
	C57.766731,81.028061 57.981106,80.413925 58.195484,79.799789 
	C59.038696,81.222908 59.881905,82.646027 61.058327,84.631516 
	C63.722191,82.760880 65.818405,81.288864 67.932800,79.400932 
	C67.932800,79.400932 68.051506,79.001907 68.626274,78.944054 
	C69.082474,78.628220 69.538673,78.312386 70.545982,78.206558 
	C71.697426,78.138245 72.848877,78.069923 74.308075,78.574913 
	C75.234726,79.019951 76.161369,79.464989 77.080360,79.935219 
	C77.080360,79.935219 77.102333,79.922752 77.134628,80.658646 
	C78.403160,81.279236 79.658875,82.392769 80.942673,82.426140 
	C84.510597,82.518913 88.114319,81.827705 91.658020,82.083031 
	C94.861771,82.313858 98.004974,83.384941 101.707779,84.203270 
	C100.948090,81.550148 100.460732,79.848076 99.956909,78.088509 
	C102.292847,79.199593 104.153130,80.084435 106.416878,81.501053 
	C112.276611,81.004868 118.136353,80.508682 124.502327,79.997002 
	C124.668030,79.964775 124.833740,79.932549 125.469292,80.125351 
	C125.809723,80.170120 126.150162,80.214890 127.203651,80.729912 
	C132.946930,82.545891 137.150742,78.699387 142.259521,77.275345 
	C145.194778,79.041443 148.104019,80.853188 151.079346,82.548973 
	C152.125656,83.145309 153.506165,84.065277 154.440262,83.800583 
	C160.467575,82.092651 166.424805,81.051064 172.537292,83.425133 
	C172.683289,83.481827 173.491760,81.832870 174.260895,80.473648 
	C174.541824,79.973129 174.822754,79.472610 175.640015,79.244942 
	C176.122147,78.717308 177.021835,78.191696 177.024399,77.661743 
	C177.069733,68.303833 177.179260,58.939327 176.851929,49.591057 
	C176.762238,47.029152 175.292816,44.515553 173.872696,41.580669 
	C173.670822,41.459263 173.468933,41.337856 173.415375,41.141171 
	C173.415375,41.141171 173.501831,40.998333 173.768509,40.409782 
	C173.821838,39.300293 173.875153,38.190800 173.880661,38.076370 
	C171.247116,37.668262 169.072922,37.331337 166.253555,36.894436 
	C165.546768,40.231594 164.461624,43.851513 164.097061,47.542595 
	C163.794327,50.607655 163.768524,52.884605 159.614441,51.484669 
	C158.692169,51.173855 157.236893,52.444664 155.430939,53.243637 
	C155.001526,53.294682 154.572098,53.345722 153.811798,52.798561 
	C153.205688,52.534679 152.599594,52.270798 151.261932,52.006531 
	C150.097580,52.384415 147.996475,52.619835 147.913971,53.162243 
	C147.100571,58.510769 143.213516,57.154846 139.899582,57.104355 
	C139.899582,57.104355 139.880844,57.105701 139.932297,56.328445 
	C139.819641,55.142563 139.706970,53.956684 139.623657,53.079678 
	C137.066971,53.079678 134.989212,53.079678 132.089935,53.092396 
	C129.061417,53.990273 126.032890,54.888145 122.767174,55.424046 
	C122.566521,55.207794 122.326126,55.053452 121.915749,54.398968 
	C118.465797,54.230122 116.179535,49.202862 111.337845,52.013359 
	C110.887894,52.021061 110.437950,52.028763 109.187614,52.019939 
	C105.901718,53.539078 102.615822,55.058212 99.988174,56.273029 
	C99.988174,53.423973 100.162247,49.651016 99.894730,45.909634 
	C99.799789,44.581848 98.630409,43.330891 97.626617,41.735859 
	C97.404137,41.536179 97.179901,41.338493 96.888107,40.396614 
	C93.992500,37.000938 92.454704,37.184887 90.091148,41.621380 
	C90.091148,41.621380 90.166695,42.028145 89.874214,42.914085 
	C89.770554,46.938156 89.666893,50.962227 89.088112,55.103539 
	C89.232925,55.737686 89.377739,56.371830 89.736084,57.731773 
M246.375198,85.249130 
	C245.653214,84.625679 244.931229,84.002235 244.209244,83.378777 
	C243.875702,84.187241 243.542175,84.995705 243.208649,85.804176 
	C244.170929,85.830986 245.133209,85.857796 246.375198,85.249130 
z"/>
<path fill="#D8E7F2" opacity="1.000000" stroke="none" 
	d="
M67.914619,79.816849 
	C65.818405,81.288864 63.722191,82.760880 61.058327,84.631516 
	C59.881905,82.646027 59.038696,81.222908 58.195484,79.799789 
	C57.981106,80.413925 57.766731,81.028061 57.552353,81.642197 
	C52.145649,81.862274 46.740711,82.175072 41.331779,82.278183 
	C35.031311,82.398293 28.724640,82.438347 22.426939,82.273430 
	C20.980738,82.235565 19.560150,81.219597 18.463402,80.340820 
	C19.528082,80.014999 20.257133,80.002121 21.450743,80.063950 
	C28.817820,80.138664 35.720341,80.138664 42.626595,80.138664 
	C42.626595,77.397202 42.626595,75.445969 42.626595,73.899834 
	C37.324486,73.899834 32.237553,73.899834 27.115341,73.438339 
	C27.080059,62.564392 27.080059,52.151943 27.080059,41.726479 
	C23.590107,41.726479 21.056770,41.726479 18.520432,41.726479 
	C18.520432,53.456017 18.520432,64.740585 18.437689,76.342407 
	C18.399794,77.091621 18.444641,77.523605 18.367989,78.271271 
	C18.194954,79.033760 18.143421,79.480568 18.091888,79.927368 
	C17.420094,78.653160 16.189402,77.389420 16.165314,76.103081 
	C15.979885,66.201057 16.020500,56.294662 16.006987,46.389603 
	C15.996227,38.502544 20.050083,36.091522 27.539440,39.443165 
	C28.163219,39.722317 29.020338,39.480068 29.992071,39.480068 
	C29.992071,47.283604 29.700285,55.344025 30.161436,63.361134 
	C30.308882,65.924515 31.854914,69.278404 33.861317,70.599258 
	C35.589756,71.737114 39.886265,71.489067 41.264389,70.093323 
	C43.738617,67.587463 46.250214,64.281906 44.744572,59.872559 
	C44.239849,58.394447 44.764843,56.564995 44.817730,54.896095 
	C44.852104,53.811283 45.358452,52.162819 44.843220,51.728966 
	C39.851307,47.525528 43.461155,44.918545 46.677338,42.470764 
	C45.382790,45.652370 46.053768,48.158440 48.835938,49.470188 
	C50.039204,50.037506 52.565052,49.677856 53.365574,48.759270 
	C54.434353,47.532860 55.338333,44.580872 54.649399,43.750793 
	C53.410461,42.258030 50.934025,41.792339 48.974609,40.897545 
	C50.497704,36.864620 53.107880,36.897438 54.862461,40.189922 
	C56.145313,42.597191 56.290390,45.871155 56.130272,48.713024 
	C55.973473,51.495930 55.290955,54.010975 59.301208,55.434959 
	C59.767181,62.663540 59.960983,69.423607 59.755642,76.171539 
	C59.653057,79.542664 60.735107,80.757538 64.387283,79.993736 
	C65.821732,79.985832 66.868172,79.901337 67.914619,79.816849 
M50.850380,80.103592 
	C52.761597,80.038437 54.961739,80.673370 54.901031,77.374901 
	C54.781746,70.893181 55.066074,64.398903 54.758957,57.929977 
	C54.695572,56.594868 52.977036,54.688248 51.648228,54.289974 
	C50.750042,54.020767 49.198090,55.932800 47.186600,57.332737 
	C47.100204,64.097298 46.912434,70.864128 47.063602,77.623383 
	C47.081276,78.413643 48.969315,79.162064 50.850380,80.103592 
z"/>
<path fill="#2866AA" opacity="1.000000" stroke="none" 
	d="
M154.142685,53.396767 
	C154.572098,53.345722 155.001526,53.294682 156.119171,53.154457 
	C159.882675,54.065559 162.957932,55.065845 166.196991,56.355972 
	C167.327667,57.046600 168.294556,57.447388 168.690186,57.611382 
	C168.690186,52.719002 168.618759,48.401936 168.861115,44.102554 
	C168.876251,43.834221 171.350616,43.704514 172.984604,43.465965 
	C172.984604,52.057442 172.984604,60.027607 172.636383,68.006805 
	C171.522842,68.677628 170.757507,69.339401 169.746124,70.001190 
	C169.500061,70.001198 169.007935,70.000610 168.708771,70.000137 
	C168.010803,70.000542 167.612000,70.001434 167.210876,69.763420 
	C167.355637,69.205719 167.603348,69.024467 168.199417,68.790634 
	C168.003983,67.736366 167.560852,66.872223 167.045624,65.636703 
	C165.844070,61.062473 162.869568,59.412796 158.882767,60.258350 
	C154.314117,61.227314 153.263443,64.796539 153.323608,69.081505 
	C151.676498,70.216766 150.340851,71.259331 150.008484,71.518768 
	C150.686264,74.184883 151.124832,75.910103 151.219620,77.552200 
	C149.815460,76.300697 148.755096,75.132309 147.723480,73.746490 
	C147.602417,73.223976 147.359451,73.096718 146.963318,72.838242 
	C146.515717,69.673714 146.128113,66.818230 145.851624,63.738754 
	C146.019806,63.358158 146.076889,63.201557 146.400589,62.897385 
	C146.750504,62.155533 146.833786,61.561253 147.180527,60.928280 
	C147.579910,60.590519 147.715820,60.291447 148.006393,59.691570 
	C149.472641,57.683159 150.784256,55.975548 152.379700,54.217484 
	C153.156586,53.910278 153.649628,53.653522 154.142685,53.396767 
z"/>
<path fill="#D4E5F0" opacity="1.000000" stroke="none" 
	d="
M71.983505,53.785034 
	C73.891869,52.902748 75.790169,51.321041 77.710831,51.293407 
	C81.032104,51.245625 84.367256,52.162006 87.897018,52.704742 
	C86.052597,55.106026 84.730247,57.887402 89.356636,60.337166 
	C89.860275,63.230030 89.929161,65.615799 89.908630,68.330795 
	C89.878677,69.106995 89.938148,69.553970 89.944412,70.435455 
	C89.931061,72.909096 89.970909,74.948235 89.917458,77.314667 
	C89.884575,78.087135 89.944992,78.532303 90.127403,79.360748 
	C92.200371,79.504204 94.151329,79.264381 96.485214,78.919441 
	C97.162285,77.170555 97.435707,75.522736 97.756004,73.884071 
	C98.131744,71.961800 98.548233,70.047493 99.039810,68.455002 
	C101.420807,72.191063 103.709045,75.601845 106.000374,79.338943 
	C106.006783,80.099922 106.010094,80.534599 106.013397,80.969269 
	C104.153130,80.084435 102.292847,79.199593 99.956909,78.088509 
	C100.460732,79.848076 100.948090,81.550148 101.707779,84.203270 
	C98.004974,83.384941 94.861771,82.313858 91.658020,82.083031 
	C88.114319,81.827705 84.510597,82.518913 80.942673,82.426140 
	C79.658875,82.392769 78.403160,81.279236 77.528107,80.319748 
	C79.289612,79.965607 80.657639,79.950371 82.461304,80.003616 
	C83.567886,79.763748 84.831291,79.436829 84.822296,79.149773 
	C84.642143,73.399704 84.315353,67.654213 84.042908,61.593769 
	C84.083313,60.865170 84.098953,60.450603 84.147415,59.686523 
	C83.478996,58.187012 82.777779,57.037014 82.062958,55.924858 
	C82.049355,55.962696 82.129425,55.955238 82.056854,55.697838 
	C81.660194,55.352306 81.336098,55.264179 80.720139,55.047585 
	C77.613358,54.541088 74.798431,54.163063 71.983505,53.785034 
z"/>
<path fill="#D4E4F1" opacity="1.000000" stroke="none" 
	d="
M147.694717,73.963928 
	C148.755096,75.132309 149.815460,76.300697 151.238098,77.541382 
	C151.600388,77.613670 151.635529,77.631805 151.768585,77.933304 
	C153.597244,78.765800 155.292862,79.296799 157.353149,79.896645 
	C158.864349,79.781647 160.010880,79.597809 161.491470,79.304970 
	C163.241943,78.533470 164.658356,77.870979 166.344299,77.357559 
	C166.917297,81.286110 169.885132,79.853485 172.144897,80.409187 
	C172.903000,80.722313 173.447128,80.850899 173.991241,80.979477 
	C173.491760,81.832870 172.683289,83.481827 172.537292,83.425133 
	C166.424805,81.051064 160.467575,82.092651 154.440262,83.800583 
	C153.506165,84.065277 152.125656,83.145309 151.079346,82.548973 
	C148.104019,80.853188 145.194778,79.041443 141.885742,76.756676 
	C139.804199,74.828255 138.096451,73.418510 136.465500,72.072166 
	C134.989258,72.861748 133.752808,73.523071 132.052216,74.137573 
	C130.055634,74.065025 128.523193,74.039284 126.994415,74.007324 
	C126.998093,74.001099 126.984047,74.009514 126.828552,73.781212 
	C126.341927,73.405121 126.010803,73.257332 125.434608,72.957138 
	C124.483681,72.186981 123.777817,71.569244 123.097977,70.692505 
	C123.422508,70.289581 123.721016,70.145676 124.482300,70.009583 
	C128.476227,69.979172 132.007370,69.940956 135.771149,69.761032 
	C136.530380,69.700638 137.056961,69.781960 137.862823,69.901031 
	C138.680008,69.854019 139.217926,69.769264 140.169006,69.561234 
	C145.522598,66.863335 142.298569,63.819580 141.062408,60.928215 
	C141.051498,60.965744 141.129181,60.974476 141.107697,60.646812 
	C140.737061,59.835453 140.387894,59.351753 140.011047,58.575306 
	C139.955765,57.891872 139.928162,57.501194 139.900574,57.110512 
	C143.213516,57.154846 147.100571,58.510769 147.913971,53.162243 
	C147.996475,52.619835 150.097580,52.384415 151.635376,52.383881 
	C152.037842,53.263462 152.066849,53.765697 152.095856,54.267933 
	C150.784256,55.975548 149.472641,57.683159 147.800720,59.707073 
	C147.265961,60.337910 147.091522,60.652439 146.917068,60.966969 
	C146.833786,61.561253 146.750504,62.155533 146.231873,62.940735 
	C145.708221,63.204212 145.537521,63.289425 145.546371,63.347065 
	C145.578659,63.557274 145.670883,63.758274 145.740524,63.962742 
	C146.128113,66.818230 146.515717,69.673714 147.036453,73.002502 
	C147.301819,73.684563 147.476852,73.847267 147.694717,73.963928 
M142.461151,72.322525 
	C143.005524,72.412674 143.549896,72.502823 144.094269,72.592964 
	C144.066757,72.318016 144.063034,71.809952 144.008057,71.804344 
	C143.485718,71.751091 142.954697,71.783134 142.461151,72.322525 
z"/>
<path fill="#336BAC" opacity="1.000000" stroke="none" 
	d="
M90.005402,78.977463 
	C89.944992,78.532303 89.884575,78.087135 90.187439,77.050919 
	C90.366348,74.306885 90.181984,72.153908 89.997620,70.000938 
	C89.938148,69.553970 89.878677,69.106995 90.199066,68.031296 
	C90.441521,58.944420 90.304108,50.486282 90.166695,42.028145 
	C90.166695,42.028145 90.091148,41.621380 90.525146,41.443939 
	C92.957390,41.225269 94.955650,41.184036 96.953903,41.142807 
	C97.179901,41.338493 97.404137,41.536179 97.732071,42.351250 
	C97.882294,50.023640 97.927063,57.080639 98.028824,64.477448 
	C98.372887,65.921410 98.659966,67.025574 98.947052,68.129730 
	C98.548233,70.047493 98.131744,71.961800 97.756004,73.884071 
	C97.435707,75.522736 97.162285,77.170555 96.049362,78.910751 
	C93.488869,78.997276 91.747131,78.987373 90.005402,78.977463 
z"/>
<path fill="#2F67A8" opacity="1.000000" stroke="none" 
	d="
M71.765305,53.876854 
	C74.798431,54.163063 77.613358,54.541088 80.860931,55.235123 
	C81.533394,55.766075 81.812012,55.900780 82.129425,55.955238 
	C82.129425,55.955238 82.049355,55.962696 82.037773,56.314117 
	C82.722328,57.789040 83.418465,58.912540 84.114601,60.036041 
	C84.098953,60.450603 84.083313,60.865170 84.033661,62.067238 
	C83.341652,68.548210 82.683662,74.241676 82.025665,79.935135 
	C80.657639,79.950371 79.289612,79.965607 77.511963,79.951797 
	C77.102333,79.922752 77.080360,79.935219 77.096497,79.462784 
	C77.096375,74.405525 77.237556,69.813133 77.017303,65.238129 
	C76.817581,61.089588 74.803131,59.208622 70.230011,61.167660 
	C69.272064,61.811707 68.641815,62.412659 67.967262,62.990585 
	C67.922958,62.967556 67.828056,62.936451 67.685982,62.703506 
	C67.028999,62.311050 66.514099,62.151539 66.129990,61.690548 
	C66.760719,56.901791 64.485703,56.567093 61.098640,57.606537 
	C61.430061,56.496704 61.741634,55.706554 62.442768,54.965691 
	C65.501724,54.018719 68.778870,58.154579 71.078804,54.038418 
	C71.078804,54.038418 71.547112,53.968678 71.765305,53.876854 
z"/>
<path fill="#2D68AB" opacity="1.000000" stroke="none" 
	d="
M139.900085,57.107433 
	C139.928162,57.501194 139.955765,57.891872 140.022751,58.894539 
	C140.417831,59.995838 140.773499,60.485157 141.129181,60.974476 
	C141.129181,60.974476 141.051498,60.965744 141.035553,61.367439 
	C141.019608,63.684208 141.019608,65.599281 141.019608,66.500755 
	C137.309433,67.605782 134.661118,68.394547 131.577118,69.243729 
	C129.095566,69.255981 127.049713,69.207817 124.968048,68.835968 
	C124.287453,67.672501 123.642662,66.832733 122.999146,65.658745 
	C123.000999,64.878822 123.001564,64.433113 123.246864,63.983562 
	C123.491600,63.979713 123.980736,63.959698 124.433350,64.012566 
	C128.189560,64.008644 131.493164,63.951847 135.112732,63.795673 
	C138.483032,60.838112 135.248398,59.341881 133.731735,58.665977 
	C130.821579,57.369038 127.347870,56.156212 125.152115,60.194805 
	C125.122940,60.143406 125.238739,60.119690 124.969269,60.215210 
	C124.528595,60.637951 124.357399,60.965176 124.229034,61.244598 
	C124.271866,61.196793 124.339027,61.306202 123.957123,61.211739 
	C123.056923,61.084877 122.538628,61.052483 121.840363,60.782772 
	C121.106361,60.361752 120.552338,60.178047 119.983215,59.682949 
	C119.947578,59.164734 119.927025,58.957912 119.914070,58.474686 
	C119.983437,57.834888 120.045204,57.471497 120.086143,57.094688 
	C120.065315,57.081276 120.083801,57.122787 120.402924,57.054504 
	C121.482819,56.586151 122.243591,56.186085 123.004364,55.786018 
	C126.032890,54.888145 129.061417,53.990273 132.640961,53.417366 
	C135.421616,54.863461 137.651230,55.984581 139.880844,57.105701 
	C139.880844,57.105701 139.899582,57.104355 139.900085,57.107433 
z"/>
<path fill="#CBE1EF" opacity="1.000000" stroke="none" 
	d="
M120.106972,57.108101 
	C120.045204,57.471497 119.983437,57.834888 119.671539,58.597961 
	C119.245850,59.307014 119.070290,59.616394 118.915039,59.914104 
	C118.935349,59.902439 118.894890,59.876080 118.575081,60.065292 
	C117.557884,63.502331 116.860504,66.750153 116.143837,70.336395 
	C116.945953,72.246323 117.767365,73.817848 118.743713,75.680237 
	C120.597794,77.318245 122.296944,78.665375 123.996086,80.012505 
	C118.136353,80.508682 112.276611,81.004868 106.215134,81.235161 
	C106.010094,80.534599 106.006783,80.099922 106.341965,79.445877 
	C109.095787,79.226501 111.511124,79.226501 114.639320,79.226501 
	C113.322433,76.513687 112.514488,74.849297 112.113495,73.065460 
	C115.357239,68.337013 114.612236,62.924637 110.934914,60.738617 
	C111.001167,60.531391 111.089989,60.105431 111.336319,60.014297 
	C111.774376,59.641178 111.966103,59.359192 112.108231,59.077858 
	C112.058632,59.078514 112.131264,59.146080 112.394913,58.988541 
	C113.401512,58.140812 114.144463,57.450623 115.018219,57.046021 
	C116.801666,57.257107 118.454323,57.182602 120.106972,57.108101 
z"/>
<path fill="#577AAB" opacity="1.000000" stroke="none" 
	d="
M238.091644,84.895309 
	C236.767639,86.192581 235.451477,88.607681 234.118408,88.617058 
	C217.817734,88.731674 201.514587,88.493416 185.181839,88.025574 
	C185.502487,87.502869 185.853363,87.301155 186.650146,87.088646 
	C194.726334,87.063057 202.356644,87.048264 210.438141,87.046844 
	C213.597626,87.051590 216.305939,87.042953 219.477966,87.047325 
	C224.648849,86.755455 229.356003,86.450577 234.418915,86.139099 
	C235.480865,86.083336 236.187042,86.034172 237.142700,85.867188 
	C237.625336,85.464684 237.858490,85.180000 238.091644,84.895309 
z"/>
<path fill="#316BAD" opacity="1.000000" stroke="none" 
	d="
M67.923706,79.608887 
	C66.868172,79.901337 65.821732,79.985832 64.326241,79.686234 
	C61.984207,78.176132 60.465370,77.069443 60.915314,74.294716 
	C61.353134,71.594765 61.046516,68.774109 61.467869,66.004951 
	C64.508369,66.249954 66.949257,66.110741 67.828056,62.936451 
	C67.828056,62.936451 67.922958,62.967556 67.950829,63.456642 
	C68.002968,68.964455 68.027237,73.983185 68.051498,79.001907 
	C68.051506,79.001907 67.932800,79.400932 67.923706,79.608887 
z"/>
<path fill="#E8EFF5" opacity="1.000000" stroke="none" 
	d="
M174.456543,41.979782 
	C175.292816,44.515553 176.762238,47.029152 176.851929,49.591057 
	C177.179260,58.939327 177.069733,68.303833 177.024399,77.661743 
	C177.021835,78.191696 176.122147,78.717308 175.139313,79.081070 
	C174.638596,78.917198 174.176941,78.989113 174.192535,78.611290 
	C174.146149,77.481171 174.084167,76.728867 174.123444,75.760681 
	C174.224716,75.544785 174.319901,75.077461 174.501175,74.851013 
	C174.562729,73.724045 174.443008,72.823517 174.298706,71.460648 
	C174.285141,65.023392 174.296188,59.048485 174.495697,52.817154 
	C174.565567,51.349491 174.446976,50.138248 174.304626,48.493160 
	C174.339432,46.032803 174.397980,44.006290 174.456543,41.979782 
z"/>
<path fill="#34629B" opacity="1.000000" stroke="none" 
	d="
M174.307236,53.073578 
	C174.296188,59.048485 174.285141,65.023392 174.191010,71.847946 
	C174.178558,73.490883 174.249222,74.284172 174.319885,75.077461 
	C174.319901,75.077461 174.224716,75.544785 173.853104,75.507935 
	C173.313416,73.983032 173.145340,72.494987 172.984360,70.630783 
	C172.989166,69.502335 172.986877,68.750053 172.984604,67.997772 
	C172.984604,60.027607 172.984604,52.057442 172.984604,43.465965 
	C171.350616,43.704514 168.876251,43.834221 168.861115,44.102554 
	C168.618759,48.401936 168.690186,52.719002 168.690186,57.611382 
	C168.294556,57.447388 167.327667,57.046600 166.313705,55.898712 
	C166.269913,52.702740 166.078156,50.233280 166.333786,47.811039 
	C166.568558,45.586487 167.285370,43.412804 167.943085,41.362850 
	C168.481888,41.429905 168.867432,41.350815 169.571915,41.290970 
	C170.528717,41.277199 171.166595,41.244183 172.036804,41.343540 
	C172.601761,41.389427 172.934402,41.302937 173.267029,41.216446 
	C173.468933,41.337856 173.670822,41.459263 174.164612,41.780228 
	C174.397980,44.006290 174.339432,46.032803 174.196320,48.899498 
	C174.176926,50.850979 174.242081,51.962280 174.307236,53.073578 
z"/>
<path fill="#DCEAF3" opacity="1.000000" stroke="none" 
	d="
M167.789795,41.216705 
	C167.285370,43.412804 166.568558,45.586487 166.333786,47.811039 
	C166.078156,50.233280 166.269913,52.702740 166.149902,55.608871 
	C162.957932,55.065845 159.882675,54.065559 156.417206,53.026253 
	C157.236893,52.444664 158.692169,51.173855 159.614441,51.484669 
	C163.768524,52.884605 163.794327,50.607655 164.097061,47.542595 
	C164.461624,43.851513 165.546768,40.231594 166.253555,36.894436 
	C169.072922,37.331337 171.247116,37.668262 173.880661,38.076370 
	C173.875153,38.190800 173.821838,39.300293 173.204987,40.714001 
	C172.362442,41.082535 172.083450,41.146851 171.804459,41.211166 
	C171.166595,41.244183 170.528717,41.277199 169.208313,41.209930 
	C168.280441,41.145329 168.035110,41.181019 167.789795,41.216705 
z"/>
<path fill="#EBE9E7" opacity="1.000000" stroke="none" 
	d="
M74.000320,78.001602 
	C72.848877,78.069923 71.697426,78.138245 70.104599,77.724464 
	C70.109390,72.488708 70.555573,67.735039 71.000778,62.989445 
	C70.999794,62.997517 71.015411,62.996246 71.164284,63.207500 
	C71.871971,63.278790 72.430786,63.138828 73.278351,63.150772 
	C73.567093,65.214645 73.567093,67.126617 73.567093,69.860283 
	C76.943214,71.427979 75.923775,74.644508 74.000320,78.001602 
z"/>
<path fill="#577AAB" opacity="1.000000" stroke="none" 
	d="
M185.946930,33.434082 
	C201.506805,33.289307 217.066956,33.062916 232.626221,33.111546 
	C234.406342,33.117107 236.181656,34.661163 237.684464,35.794205 
	C237.409729,36.096546 237.019180,36.130905 236.813538,35.912376 
	C231.260025,35.126358 225.911621,34.083485 220.564392,34.089443 
	C209.110184,34.102207 197.656586,34.656887 186.130737,34.602074 
	C186.021469,33.954365 185.984207,33.694225 185.946930,33.434082 
z"/>
<path fill="#D4E5F0" opacity="1.000000" stroke="none" 
	d="
M97.971832,64.137634 
	C97.927063,57.080639 97.882294,50.023640 97.894531,42.505753 
	C98.630409,43.330891 99.799789,44.581848 99.894730,45.909634 
	C100.162247,49.651016 99.988174,53.423973 99.988174,56.273029 
	C102.615822,55.058212 105.901718,53.539078 109.436989,52.249321 
	C109.123100,52.917919 108.559837,53.357140 107.712692,53.941231 
	C106.607155,55.040081 105.785500,55.994057 104.708939,57.110310 
	C104.332977,57.647396 104.211914,58.022202 103.831894,58.452175 
	C103.265129,58.918873 102.957321,59.330406 102.697678,59.784702 
	C102.745842,59.827469 102.788399,59.705883 102.515030,59.798870 
	C102.049408,60.218380 101.857162,60.544907 101.406021,61.080254 
	C100.088692,62.238590 99.030258,63.188114 97.971832,64.137634 
z"/>
<path fill="#345F8F" opacity="1.000000" stroke="none" 
	d="
M48.878677,41.011353 
	C50.934025,41.792339 53.410461,42.258030 54.649399,43.750793 
	C55.338333,44.580872 54.434353,47.532860 53.365574,48.759270 
	C52.565052,49.677856 50.039204,50.037506 48.835938,49.470188 
	C46.053768,48.158440 45.382790,45.652370 47.012878,42.444771 
	C47.095718,42.091026 47.045490,42.049789 47.330856,41.992104 
	C47.905838,41.663696 48.195450,41.392971 48.485062,41.122250 
	C48.485062,41.122250 48.782742,41.125156 48.878677,41.011353 
z"/>
<path fill="#1F5286" opacity="1.000000" stroke="none" 
	d="
M186.204254,87.099442 
	C185.853363,87.301155 185.502487,87.502869 184.944153,87.753937 
	C184.736710,87.803307 184.333801,87.578072 184.193390,87.382294 
	C184.052963,87.186508 184.065323,87.182236 184.065323,87.182236 
	C183.684143,85.955956 182.972366,84.729828 182.971832,83.503380 
	C182.964935,67.465675 183.058640,51.427929 183.738312,35.149017 
	C184.554520,34.926186 184.759445,34.944523 184.988892,34.988647 
	C185.013412,35.014439 185.062317,35.066158 184.983353,35.471951 
	C184.631058,36.833885 184.124023,37.788914 184.119476,38.746342 
	C184.052139,52.886944 184.001511,67.028282 184.120010,81.167999 
	C184.130722,82.445488 185.333649,83.712997 185.990417,84.990921 
	C185.997940,84.996704 185.986282,84.987160 185.823334,85.081177 
	C185.770386,85.457710 185.880386,85.740234 186.027786,86.295120 
	C186.111542,86.744797 186.157898,86.922119 186.204254,87.099442 
z"/>
<path fill="#D4E5F0" opacity="1.000000" stroke="none" 
	d="
M74.154198,78.288254 
	C75.923775,74.644508 76.943214,71.427979 73.567093,69.860283 
	C73.567093,67.126617 73.567093,65.214645 72.949356,63.149368 
	C71.892883,62.996128 71.454147,62.996185 71.015411,62.996246 
	C71.015411,62.996246 70.999794,62.997517 70.916306,62.519012 
	C70.741119,61.735195 70.649414,61.429882 70.557709,61.124565 
	C74.803131,59.208622 76.817581,61.089588 77.017303,65.238129 
	C77.237556,69.813133 77.096375,74.405525 77.100319,79.450188 
	C76.161369,79.464989 75.234726,79.019951 74.154198,78.288254 
z"/>
<path fill="#205391" opacity="1.000000" stroke="none" 
	d="
M237.019180,36.130905 
	C237.019180,36.130905 237.409729,36.096546 237.597870,36.041580 
	C237.928986,48.845539 238.080078,61.704380 238.209076,74.563446 
	C238.240555,77.700874 238.199570,80.839043 238.141785,84.436089 
	C237.858490,85.180000 237.625336,85.464684 237.170685,85.400299 
	C236.972519,68.744453 236.995850,52.437679 237.019180,36.130905 
z"/>
<path fill="#3E6BA8" opacity="1.000000" stroke="none" 
	d="
M132.516357,74.184402 
	C133.752808,73.523071 134.989258,72.861748 136.465500,72.072166 
	C138.096451,73.418510 139.804199,74.828255 141.690186,76.490494 
	C137.150742,78.699387 132.946930,82.545891 127.301758,80.420380 
	C130.481750,79.457336 133.563660,78.803818 136.645554,78.150299 
	C136.566269,77.545860 136.486984,76.941422 136.407715,76.336990 
	C134.900513,76.181679 133.393326,76.026375 131.959869,75.579498 
	C132.194519,74.920090 132.355438,74.552246 132.516357,74.184402 
z"/>
<path fill="#2E6DAC" opacity="1.000000" stroke="none" 
	d="
M131.886124,75.871071 
	C133.393326,76.026375 134.900513,76.181679 136.407715,76.336990 
	C136.486984,76.941422 136.566269,77.545860 136.645554,78.150299 
	C133.563660,78.803818 130.481750,79.457336 126.945221,80.185257 
	C126.150162,80.214890 125.809723,80.170120 125.235931,79.650108 
	C124.997032,78.449402 124.991493,77.723930 124.991989,76.665703 
	C125.005020,75.889206 125.012016,75.445480 125.374680,74.999191 
	C126.204666,74.959915 126.678978,74.923187 127.115509,74.904861 
	C127.077721,74.923271 127.062103,74.840675 127.176758,75.092491 
	C127.595306,75.540321 127.899193,75.736328 128.419525,75.953270 
	C128.635986,75.974197 129.043457,76.126289 129.250275,76.343781 
	C130.293793,76.330566 131.130478,76.099861 131.947723,75.900841 
	C131.928268,75.932526 131.886124,75.871071 131.886124,75.871071 
z"/>
<path fill="#20568F" opacity="1.000000" stroke="none" 
	d="
M61.066765,66.006447 
	C61.046516,68.774109 61.353134,71.594765 60.915314,74.294716 
	C60.465370,77.069443 61.984207,78.176132 63.938240,79.609642 
	C60.735107,80.757538 59.653057,79.542664 59.755642,76.171539 
	C59.960983,69.423607 59.767181,62.663540 59.623192,55.452713 
	C59.596355,54.835537 59.684490,54.674137 60.201279,54.268341 
	C61.104355,54.321430 61.578781,54.618916 62.053204,54.916405 
	C61.741634,55.706554 61.430061,56.496704 61.070747,58.015224 
	C61.016628,59.827335 61.010250,60.911076 60.998611,62.395985 
	C61.017822,63.866917 61.042294,64.936684 61.066765,66.006447 
z"/>
<path fill="#D4E5F0" opacity="1.000000" stroke="none" 
	d="
M120.086143,57.094688 
	C118.454323,57.182602 116.801666,57.257107 115.068764,56.837730 
	C115.241646,56.004326 115.494781,55.664799 115.764336,54.971489 
	C114.524734,53.754131 113.268723,52.890560 112.012711,52.026989 
	C116.179535,49.202862 118.465797,54.230122 121.654305,54.745640 
	C120.956505,55.769138 120.520149,56.445961 120.083801,57.122787 
	C120.083801,57.122787 120.065315,57.081276 120.086143,57.094688 
z"/>
<path fill="#D4E5F0" opacity="1.000000" stroke="none" 
	d="
M62.442768,54.965687 
	C61.578781,54.618916 61.104355,54.321430 60.321419,54.020023 
	C63.422497,49.488327 66.858940,53.001694 70.682861,54.010109 
	C68.778870,58.154579 65.501724,54.018719 62.442768,54.965687 
z"/>
<path fill="#1C508B" opacity="1.000000" stroke="none" 
	d="
M90.020454,42.471115 
	C90.304108,50.486282 90.441521,58.944420 90.288483,67.702065 
	C89.929161,65.615799 89.860275,63.230030 89.676865,60.410984 
	C89.620255,59.229065 89.678169,58.480419 89.723709,57.037254 
	C89.661964,55.890591 89.612595,55.438446 89.563225,54.986298 
	C89.666893,50.962227 89.770554,46.938156 90.020454,42.471115 
z"/>
<path fill="#D8E7F2" opacity="1.000000" stroke="none" 
	d="
M70.230011,61.167660 
	C70.649414,61.429882 70.741119,61.735195 70.917290,62.510941 
	C70.555573,67.735039 70.109390,72.488708 69.829041,77.619461 
	C69.538673,78.312386 69.082474,78.628220 68.338882,78.972977 
	C68.027237,73.983185 68.002968,68.964455 67.995132,63.479668 
	C68.641815,62.412659 69.272064,61.811707 70.230011,61.167660 
z"/>
<path fill="#CDE0EF" opacity="1.000000" stroke="none" 
	d="
M139.906570,56.717072 
	C137.651230,55.984581 135.421616,54.863461 133.051727,53.411007 
	C134.989212,53.079678 137.066971,53.079678 139.623657,53.079678 
	C139.706970,53.956684 139.819641,55.142563 139.906570,56.717072 
z"/>
<path fill="#D4E5F0" opacity="1.000000" stroke="none" 
	d="
M96.921005,40.769711 
	C94.955650,41.184036 92.957390,41.225269 90.532425,41.237206 
	C92.454704,37.184887 93.992500,37.000938 96.921005,40.769711 
z"/>
<path fill="#3167A2" opacity="1.000000" stroke="none" 
	d="
M124.985947,76.998466 
	C124.991493,77.723930 124.997032,78.449402 125.001007,79.537598 
	C124.833740,79.932549 124.668030,79.964775 124.249207,80.004753 
	C122.296944,78.665375 120.597794,77.318245 118.855919,75.575478 
	C118.813187,75.179840 119.031723,74.968163 119.379486,75.020813 
	C121.480148,75.715126 123.233047,76.356796 124.985947,76.998466 
z"/>
<path fill="#D1E5F2" opacity="1.000000" stroke="none" 
	d="
M111.675278,52.020172 
	C113.268723,52.890560 114.524734,53.754131 115.390060,54.850594 
	C112.665108,54.654438 110.330841,54.225395 107.996574,53.796356 
	C108.559837,53.357140 109.123100,52.917919 109.837181,52.257584 
	C110.437950,52.028763 110.887894,52.021061 111.675278,52.020172 
z"/>
<path fill="#A8B3BF" opacity="1.000000" stroke="none" 
	d="
M246.235352,85.566864 
	C245.133209,85.857796 244.170929,85.830986 243.208649,85.804176 
	C243.542175,84.995705 243.875702,84.187241 244.209244,83.378784 
	C244.931229,84.002235 245.653214,84.625679 246.235352,85.566864 
z"/>
<path fill="#CBE1EF" opacity="1.000000" stroke="none" 
	d="
M120.402924,57.054501 
	C120.520149,56.445961 120.956505,55.769138 121.719421,55.026661 
	C122.326126,55.053452 122.566521,55.207794 122.885773,55.605034 
	C122.243591,56.186085 121.482819,56.586151 120.402924,57.054501 
z"/>
<path fill="#D4E5F0" opacity="1.000000" stroke="none" 
	d="
M89.325668,55.044918 
	C89.612595,55.438446 89.661964,55.890591 89.616943,56.674358 
	C89.377739,56.371830 89.232925,55.737686 89.325668,55.044918 
z"/>
<path fill="#A2BADB" opacity="1.000000" stroke="none" 
	d="
M174.176941,78.989120 
	C174.176941,78.989113 174.638596,78.917198 174.871140,78.944641 
	C174.822754,79.472610 174.541824,79.973129 174.126068,80.726562 
	C173.447128,80.850899 172.903000,80.722313 172.424500,80.244644 
	C173.052383,79.593414 173.614670,79.291267 174.176941,78.989120 
z"/>
<path fill="#DCEAF3" opacity="1.000000" stroke="none" 
	d="
M152.379700,54.217484 
	C152.066849,53.765697 152.037842,53.263462 152.001160,52.384071 
	C152.599594,52.270798 153.205688,52.534679 153.977234,53.097664 
	C153.649628,53.653522 153.156586,53.910278 152.379700,54.217484 
z"/>
<path fill="#D8E7F2" opacity="1.000000" stroke="none" 
	d="
M48.181557,41.184204 
	C48.195450,41.392971 47.905838,41.663696 47.327515,42.024281 
	C47.318550,41.824818 47.598301,41.535488 48.181557,41.184204 
z"/>
<path fill="#1F5286" opacity="1.000000" stroke="none" 
	d="
M185.668549,33.502686 
	C185.984207,33.694225 186.021469,33.954365 185.844482,34.621773 
	C185.440918,35.041420 185.251617,35.053791 185.062317,35.066158 
	C185.062317,35.066158 185.013412,35.014439 184.984772,34.717484 
	C184.939575,34.240124 184.923004,34.059715 184.906448,33.879303 
	C185.067688,33.776630 185.228912,33.673962 185.668549,33.502686 
z"/>
<path fill="#577AAB" opacity="1.000000" stroke="none" 
	d="
M184.643066,33.913338 
	C184.923004,34.059715 184.939575,34.240124 184.960251,34.691692 
	C184.759445,34.944523 184.554520,34.926186 184.048492,34.839684 
	C183.958160,34.496807 184.168930,34.222092 184.643066,33.913338 
z"/>
<path fill="#577AAB" opacity="1.000000" stroke="none" 
	d="
M183.968475,87.165024 
	C184.065323,87.182236 184.052963,87.186508 184.074310,87.184586 
	C184.095642,87.182671 183.871643,87.147820 183.968475,87.165024 
z"/>
<path fill="#A2BADB" opacity="1.000000" stroke="none" 
	d="
M172.036804,41.343544 
	C172.083450,41.146851 172.362442,41.082535 173.071640,41.008278 
	C173.501831,40.998333 173.415375,41.141171 173.341202,41.178810 
	C172.934402,41.302937 172.601761,41.389427 172.036804,41.343544 
z"/>
<path fill="#386DA8" opacity="1.000000" stroke="none" 
	d="
M18.520432,76.025162 
	C18.520432,64.740585 18.520432,53.456017 18.520432,41.726479 
	C21.056770,41.726479 23.590107,41.726479 27.080059,41.726479 
	C27.080059,52.151943 27.080059,62.564392 26.727142,73.478516 
	C23.756294,74.661850 21.138363,75.343506 18.520432,76.025162 
z"/>
<path fill="#2E67A6" opacity="1.000000" stroke="none" 
	d="
M47.938560,56.869183 
	C49.198090,55.932800 50.750042,54.020767 51.648228,54.289974 
	C52.977036,54.688248 54.695572,56.594868 54.758957,57.929977 
	C55.066074,64.398903 54.781746,70.893181 54.901031,77.374901 
	C54.961739,80.673370 52.761597,80.038437 50.373978,79.722481 
	C49.264309,77.828171 48.143478,76.333862 48.083969,74.798424 
	C47.852619,68.829094 47.958298,62.846710 47.938560,56.869183 
z"/>
<path fill="#2865AC" opacity="1.000000" stroke="none" 
	d="
M18.437689,76.342407 
	C21.138363,75.343506 23.756294,74.661850 26.762424,73.940018 
	C32.237553,73.899834 37.324486,73.899834 42.626595,73.899834 
	C42.626595,75.445969 42.626595,77.397202 42.626595,80.138664 
	C35.720341,80.138664 28.817820,80.138664 21.407959,79.758926 
	C20.096910,78.904648 19.293198,78.430115 18.489487,77.955582 
	C18.444641,77.523605 18.399794,77.091621 18.437689,76.342407 
z"/>
<path fill="#2A518E" opacity="1.000000" stroke="none" 
	d="
M47.562580,57.100960 
	C47.958298,62.846710 47.852619,68.829094 48.083969,74.798424 
	C48.143478,76.333862 49.264309,77.828171 49.943924,79.635628 
	C48.969315,79.162064 47.081276,78.413643 47.063602,77.623383 
	C46.912434,70.864128 47.100204,64.097298 47.562580,57.100960 
z"/>
<path fill="#386DA8" opacity="1.000000" stroke="none" 
	d="
M18.367989,78.271271 
	C19.293198,78.430115 20.096910,78.904648 20.943405,79.684204 
	C20.257133,80.002121 19.528082,80.014999 18.436687,79.966896 
	C18.074348,79.905907 17.999777,79.986092 18.045832,79.956726 
	C18.143421,79.480568 18.194954,79.033760 18.367989,78.271271 
z"/>
<path fill="#DAE4EC" opacity="1.000000" stroke="none" 
	d="
M167.951721,68.980766 
	C167.603348,69.024467 167.355637,69.205719 167.095886,70.072037 
	C166.542297,71.367325 166.101379,72.115097 165.483917,72.839600 
	C165.307373,72.816330 164.993958,72.985474 164.619476,72.968643 
	C162.168243,73.621208 160.091476,74.290604 157.910187,74.666748 
	C156.415466,72.578606 155.025269,70.783707 153.635056,68.988808 
	C153.263443,64.796539 154.314117,61.227314 158.882767,60.258350 
	C162.869568,59.412796 165.844070,61.062473 166.993073,65.955719 
	C167.325638,67.424332 167.638672,68.202553 167.951721,68.980766 
z"/>
<path fill="#2864AE" opacity="1.000000" stroke="none" 
	d="
M164.993958,72.985474 
	C164.993958,72.985474 165.307373,72.816330 165.875412,72.869125 
	C167.298279,71.948151 168.153107,70.974373 169.007935,70.000610 
	C169.007935,70.000610 169.500061,70.001198 169.963547,70.249329 
	C171.277115,70.667290 172.127182,70.837112 172.977264,71.006943 
	C173.145340,72.494987 173.313416,73.983032 173.751831,75.723824 
	C174.084167,76.728867 174.146149,77.481171 174.192535,78.611298 
	C173.614670,79.291267 173.052383,79.593414 172.210495,80.060104 
	C169.885132,79.853485 166.917297,81.286110 166.183105,77.085968 
	C165.499557,75.438713 165.246765,74.212090 164.993958,72.985474 
z"/>
<path fill="#2E6AB2" opacity="1.000000" stroke="none" 
	d="
M153.323608,69.081505 
	C155.025269,70.783707 156.415466,72.578606 158.103760,74.943199 
	C159.320358,76.813248 160.238876,78.113617 161.157394,79.413979 
	C160.010880,79.597809 158.864349,79.781647 157.272720,79.553757 
	C155.096909,78.638618 153.366226,78.135208 151.635529,77.631805 
	C151.635529,77.631805 151.600388,77.613670 151.581909,77.624496 
	C151.124832,75.910103 150.686264,74.184883 150.008484,71.518768 
	C150.340851,71.259331 151.676498,70.216766 153.323608,69.081505 
z"/>
<path fill="#2D65A5" opacity="1.000000" stroke="none" 
	d="
M172.984360,70.630783 
	C172.127182,70.837112 171.277115,70.667290 170.209595,70.249313 
	C170.757507,69.339401 171.522842,68.677628 172.636383,68.006805 
	C172.986877,68.750053 172.989166,69.502335 172.984360,70.630783 
z"/>
<path fill="#2D65A5" opacity="1.000000" stroke="none" 
	d="
M168.708771,70.000130 
	C168.153107,70.974373 167.298279,71.948151 166.051956,72.892395 
	C166.101379,72.115097 166.542297,71.367325 167.098206,70.310936 
	C167.612000,70.001434 168.010803,70.000542 168.708771,70.000130 
z"/>
<path fill="#2D65A5" opacity="1.000000" stroke="none" 
	d="
M168.199417,68.790634 
	C167.638672,68.202553 167.325638,67.424332 167.065170,66.327095 
	C167.560852,66.872223 168.003983,67.736366 168.199417,68.790634 
z"/>
<path fill="#CDE0EF" opacity="1.000000" stroke="none" 
	d="
M147.180527,60.928280 
	C147.091522,60.652439 147.265961,60.337910 147.646072,60.007874 
	C147.715820,60.291447 147.579910,60.590519 147.180527,60.928280 
z"/>
<path fill="#CDE0EF" opacity="1.000000" stroke="none" 
	d="
M147.723480,73.746490 
	C147.476852,73.847267 147.301819,73.684563 147.096466,73.311546 
	C147.359451,73.096718 147.602417,73.223976 147.723480,73.746490 
z"/>
<path fill="#CDE0EF" opacity="1.000000" stroke="none" 
	d="
M145.851624,63.738754 
	C145.670883,63.758274 145.578659,63.557274 145.546371,63.347065 
	C145.537521,63.289425 145.708221,63.204212 145.965240,63.088306 
	C146.076889,63.201557 146.019806,63.358158 145.851624,63.738754 
z"/>
<path fill="#2D66A8" opacity="1.000000" stroke="none" 
	d="
M104.090851,58.397011 
	C104.211914,58.022202 104.332977,57.647396 104.828827,57.332760 
	C105.468773,57.595272 105.733932,57.797615 106.005310,58.365532 
	C107.026695,59.829266 108.041855,60.927422 109.038086,62.418297 
	C107.007973,67.022041 108.488586,70.328506 111.706543,73.184914 
	C112.514488,74.849297 113.322433,76.513687 114.639320,79.226501 
	C111.511124,79.226501 109.095787,79.226501 106.338867,79.119568 
	C103.709045,75.601845 101.420807,72.191063 99.039810,68.455002 
	C98.659966,67.025574 98.372887,65.921410 98.028824,64.477448 
	C99.030258,63.188114 100.088692,62.238590 101.684677,60.990234 
	C102.410957,60.362896 102.599678,60.034389 102.788399,59.705883 
	C102.788399,59.705883 102.745842,59.827469 102.973267,59.756943 
	C103.497406,59.256615 103.794136,58.826813 104.090851,58.397011 
z"/>
<path fill="#2F598D" opacity="1.000000" stroke="none" 
	d="
M82.461304,80.003616 
	C82.683662,74.241676 83.341652,68.548210 84.008896,62.381279 
	C84.315353,67.654213 84.642143,73.399704 84.822296,79.149773 
	C84.831291,79.436829 83.567886,79.763748 82.461304,80.003616 
z"/>
<path fill="#1C508B" opacity="1.000000" stroke="none" 
	d="
M89.944412,70.435455 
	C90.181984,72.153908 90.366348,74.306885 90.280731,76.723610 
	C89.970909,74.948235 89.931061,72.909096 89.944412,70.435455 
z"/>
<path fill="#2F598D" opacity="1.000000" stroke="none" 
	d="
M84.147415,59.686523 
	C83.418465,58.912540 82.722328,57.789040 82.051376,56.276279 
	C82.777779,57.037014 83.478996,58.187012 84.147415,59.686523 
z"/>
<path fill="#1C508B" opacity="1.000000" stroke="none" 
	d="
M90.127403,79.360748 
	C91.747131,78.987373 93.488869,78.997276 95.666443,79.015869 
	C94.151329,79.264381 92.200371,79.504204 90.127403,79.360748 
z"/>
<path fill="#2F598D" opacity="1.000000" stroke="none" 
	d="
M82.056854,55.697838 
	C81.812012,55.900780 81.533394,55.766075 81.152794,55.363590 
	C81.336098,55.264179 81.660194,55.352306 82.056854,55.697838 
z"/>
<path fill="#2966A2" opacity="1.000000" stroke="none" 
	d="
M116.163124,69.997978 
	C116.860504,66.750153 117.557884,63.502331 118.597244,60.463547 
	C118.715019,62.231609 118.490829,63.790630 118.217606,65.690590 
	C120.096916,65.809464 121.547386,65.901215 122.997864,65.992966 
	C123.642662,66.832733 124.287453,67.672501 124.787201,68.957672 
	C124.378494,69.544273 124.170944,69.743835 124.019516,70.001770 
	C123.721016,70.145676 123.422508,70.289581 123.057625,70.712982 
	C122.991249,70.992462 122.920181,71.048065 122.629173,70.989182 
	C120.897202,70.629951 119.456245,70.329597 117.706619,70.022156 
	C116.986343,70.009369 116.574730,70.003677 116.163124,69.997978 
z"/>
<path fill="#3C6295" opacity="1.000000" stroke="none" 
	d="
M132.012802,69.183304 
	C134.661118,68.394547 137.309433,67.605782 141.019608,66.500755 
	C141.019608,65.599281 141.019608,63.684208 141.046478,61.329910 
	C142.298569,63.819580 145.522598,66.863335 139.908966,69.440002 
	C138.684998,69.582458 138.134262,69.722870 137.583542,69.863289 
	C137.056961,69.781960 136.530380,69.700638 135.455536,69.562401 
	C133.942459,69.398094 132.977631,69.290695 132.012802,69.183304 
z"/>
<path fill="#2D65A5" opacity="1.000000" stroke="none" 
	d="
M161.491470,79.304970 
	C160.238876,78.113617 159.320358,76.813248 158.208282,75.236435 
	C160.091476,74.290604 162.168243,73.621208 164.619476,72.968643 
	C165.246765,74.212090 165.499557,75.438713 165.913559,76.936913 
	C164.658356,77.870979 163.241943,78.533470 161.491470,79.304970 
z"/>
<path fill="#2866AA" opacity="1.000000" stroke="none" 
	d="
M151.768585,77.933304 
	C153.366226,78.135208 155.096909,78.638618 156.908035,79.484909 
	C155.292862,79.296799 153.597244,78.765800 151.768585,77.933304 
z"/>
<path fill="#CDE0EF" opacity="1.000000" stroke="none" 
	d="
M131.577118,69.243721 
	C132.977631,69.290695 133.942459,69.398094 135.222900,69.704117 
	C132.007370,69.940956 128.476227,69.979172 124.482300,70.009575 
	C124.170944,69.743835 124.378494,69.544273 124.823006,69.281372 
	C127.049713,69.207817 129.095566,69.255981 131.577118,69.243721 
z"/>
<path fill="#CDE0EF" opacity="1.000000" stroke="none" 
	d="
M129.043457,76.126297 
	C129.043457,76.126289 128.635986,75.974197 128.300583,75.700279 
	C127.664154,75.231133 127.363129,75.035904 127.062103,74.840675 
	C127.062103,74.840675 127.077721,74.923271 127.077499,74.686600 
	C127.077286,74.449921 126.990746,74.013542 126.990746,74.013542 
	C128.523193,74.039284 130.055634,74.065025 132.052216,74.137581 
	C132.355438,74.552246 132.194519,74.920090 131.959869,75.579498 
	C131.886124,75.871071 131.928268,75.932526 131.583008,75.949326 
	C130.506302,76.019508 129.774887,76.072899 129.043457,76.126297 
z"/>
<path fill="#3167A2" opacity="1.000000" stroke="none" 
	d="
M126.994415,74.007324 
	C126.990746,74.013542 127.077286,74.449921 127.115288,74.668190 
	C126.678978,74.923187 126.204666,74.959915 125.169617,74.734146 
	C124.045982,73.330452 123.483086,72.189255 122.920181,71.048065 
	C122.920181,71.048065 122.991249,70.992462 123.031601,70.971985 
	C123.777817,71.569244 124.483681,72.186981 125.586678,73.192413 
	C126.317223,73.723244 126.650635,73.866379 126.984047,74.009514 
	C126.984047,74.009514 126.998093,74.001099 126.994415,74.007324 
z"/>
<path fill="#EAEBEB" opacity="1.000000" stroke="none" 
	d="
M142.443665,72.056580 
	C142.954697,71.783134 143.485718,71.751091 144.008057,71.804344 
	C144.063034,71.809952 144.066757,72.318016 144.094269,72.592964 
	C143.549896,72.502823 143.005524,72.412674 142.443665,72.056580 
z"/>
<path fill="#CDE0EF" opacity="1.000000" stroke="none" 
	d="
M137.862823,69.901031 
	C138.134262,69.722870 138.684998,69.582458 139.495773,69.563278 
	C139.217926,69.769264 138.680008,69.854019 137.862823,69.901031 
z"/>
<path fill="#3C6295" opacity="1.000000" stroke="none" 
	d="
M141.107697,60.646812 
	C140.773499,60.485157 140.417831,59.995838 140.050446,59.187286 
	C140.387894,59.351753 140.737061,59.835453 141.107697,60.646812 
z"/>
<path fill="#CDE0EF" opacity="1.000000" stroke="none" 
	d="
M126.828552,73.781212 
	C126.650635,73.866379 126.317223,73.723244 125.831741,73.344826 
	C126.010803,73.257332 126.341927,73.405121 126.828552,73.781212 
z"/>
<path fill="#2A62AF" opacity="1.000000" stroke="none" 
	d="
M61.467869,66.004951 
	C61.042294,64.936684 61.017822,63.866917 61.414749,62.396740 
	C63.223831,61.994892 64.611511,61.993458 65.999191,61.992027 
	C66.514099,62.151539 67.028999,62.311050 67.685982,62.703506 
	C66.949257,66.110741 64.508369,66.249954 61.467869,66.004951 
z"/>
<path fill="#2365A6" opacity="1.000000" stroke="none" 
	d="
M66.129990,61.690548 
	C64.611511,61.993458 63.223831,61.994892 61.420013,61.995571 
	C61.010250,60.911076 61.016628,59.827335 61.050900,58.334908 
	C64.485703,56.567093 66.760719,56.901791 66.129990,61.690548 
z"/>
<path fill="#D7E9F1" opacity="1.000000" stroke="none" 
	d="
M134.796768,63.895050 
	C131.493164,63.951847 128.189560,64.008644 124.444199,63.676552 
	C124.114639,62.627178 124.226830,61.966690 124.339020,61.306202 
	C124.339027,61.306202 124.271866,61.196793 124.500916,61.155701 
	C124.899559,60.782970 125.069145,60.451332 125.238739,60.119690 
	C125.238739,60.119690 125.122940,60.143406 125.509415,60.070488 
	C131.377060,58.117760 132.798141,58.740013 134.796768,63.895050 
z"/>
<path fill="#36619B" opacity="1.000000" stroke="none" 
	d="
M135.112732,63.795670 
	C132.798141,58.740013 131.377060,58.117760 125.538589,60.121887 
	C127.347870,56.156212 130.821579,57.369038 133.731735,58.665977 
	C135.248398,59.341881 138.483032,60.838112 135.112732,63.795670 
z"/>
<path fill="#2C67AD" opacity="1.000000" stroke="none" 
	d="
M122.999146,65.658745 
	C121.547386,65.901215 120.096916,65.809464 118.217606,65.690590 
	C118.490829,63.790630 118.715019,62.231609 118.917053,60.274330 
	C118.894890,59.876080 118.935349,59.902439 119.190765,59.941082 
	C119.630226,59.984596 119.814262,59.989471 119.998306,59.994347 
	C120.552338,60.178047 121.106361,60.361752 121.839523,61.114594 
	C122.346474,62.451622 122.674301,63.219517 123.002121,63.987411 
	C123.001564,64.433113 123.000999,64.878822 122.999146,65.658745 
z"/>
<path fill="#36619B" opacity="1.000000" stroke="none" 
	d="
M123.246857,63.983562 
	C122.674301,63.219517 122.346474,62.451622 122.019485,61.351906 
	C122.538628,61.052483 123.056923,61.084877 123.957123,61.211739 
	C124.226830,61.966690 124.114639,62.627178 123.991592,63.623684 
	C123.980736,63.959698 123.491600,63.979713 123.246857,63.983562 
z"/>
<path fill="#2966A2" opacity="1.000000" stroke="none" 
	d="
M119.983215,59.682945 
	C119.814262,59.989471 119.630226,59.984596 119.170456,59.952747 
	C119.070290,59.616394 119.245850,59.307014 119.663940,58.874363 
	C119.927025,58.957912 119.947578,59.164734 119.983215,59.682945 
z"/>
<path fill="#36619B" opacity="1.000000" stroke="none" 
	d="
M124.969269,60.215210 
	C125.069145,60.451332 124.899559,60.782970 124.458084,61.203506 
	C124.357399,60.965176 124.528595,60.637951 124.969269,60.215210 
z"/>
<path fill="#EBE9E7" opacity="1.000000" stroke="none" 
	d="
M112.113495,73.065460 
	C108.488586,70.328506 107.007973,67.022041 109.292572,62.329987 
	C110.000214,61.547924 110.434433,61.246887 110.868660,60.945847 
	C114.612236,62.924637 115.357239,68.337013 112.113495,73.065460 
z"/>
<path fill="#2866B7" opacity="1.000000" stroke="none" 
	d="
M110.934914,60.738617 
	C110.434433,61.246887 110.000214,61.547924 109.311493,61.937267 
	C108.041855,60.927422 107.026695,59.829266 106.294846,58.211250 
	C108.982155,56.065376 111.715996,53.180279 112.131264,59.146080 
	C112.131264,59.146080 112.058632,59.078514 111.864944,59.173973 
	C111.477509,59.548100 111.283745,59.826763 111.089989,60.105431 
	C111.089989,60.105431 111.001167,60.531391 110.934914,60.738617 
z"/>
<path fill="#3A6392" opacity="1.000000" stroke="none" 
	d="
M112.394913,58.988541 
	C111.715996,53.180279 108.982155,56.065376 106.288612,57.845673 
	C105.733932,57.797615 105.468773,57.595272 105.083725,57.170479 
	C105.785500,55.994057 106.607155,55.040081 107.712692,53.941231 
	C110.330841,54.225395 112.665108,54.654438 115.373650,55.204376 
	C115.494781,55.664799 115.241646,56.004326 114.937965,56.552143 
	C114.144463,57.450623 113.401512,58.140812 112.394913,58.988541 
z"/>
<path fill="#3167A2" opacity="1.000000" stroke="none" 
	d="
M116.143837,70.336395 
	C116.574730,70.003677 116.986343,70.009369 117.710678,70.385574 
	C118.359512,72.160103 118.695618,73.564133 119.031723,74.968163 
	C119.031723,74.968163 118.813187,75.179840 118.700974,75.284607 
	C117.767365,73.817848 116.945953,72.246323 116.143837,70.336395 
z"/>
<path fill="#3A6392" opacity="1.000000" stroke="none" 
	d="
M111.336319,60.014297 
	C111.283745,59.826763 111.477509,59.548100 111.914543,59.173317 
	C111.966103,59.359192 111.774376,59.641178 111.336319,60.014297 
z"/>
<path fill="#2D67AB" opacity="1.000000" stroke="none" 
	d="
M184.983353,35.471951 
	C185.251617,35.053791 185.440918,35.041420 185.916473,35.009342 
	C197.656586,34.656887 209.110184,34.102207 220.564392,34.089443 
	C225.911621,34.083485 231.260025,35.126358 236.813538,35.912376 
	C236.995850,52.437679 236.972519,68.744453 236.921204,85.518120 
	C236.187042,86.034172 235.480865,86.083336 234.397614,85.854668 
	C234.013290,85.387703 234.006027,85.198578 233.952393,84.654762 
	C233.012909,83.613823 232.119827,82.927589 231.226746,82.241356 
	C230.811111,83.159676 230.395493,84.077995 229.609436,84.996094 
	C228.498779,84.996437 227.758545,84.996994 226.903412,84.583313 
	C226.205734,83.564491 225.622955,82.959908 225.374283,82.141808 
	C227.296448,80.596062 230.154846,79.347809 230.249435,77.916855 
	C230.629349,72.170052 230.546677,66.321297 229.885956,60.596676 
	C229.192551,54.588890 226.831558,52.235760 221.117142,53.257874 
	C216.005035,54.172256 211.098907,53.832733 206.084946,53.843979 
	C205.405899,53.845505 204.728516,54.597488 203.768829,55.199867 
	C203.325668,60.400707 203.021866,65.404663 203.057281,70.406219 
	C203.077576,73.272011 203.648926,76.133911 204.140945,79.297798 
	C204.611237,80.688965 204.912766,81.779892 204.858307,82.859856 
	C202.781799,82.385422 200.229523,78.646332 199.613144,83.997131 
	C198.496979,83.998894 197.752701,83.999451 197.005081,83.693130 
	C197.000183,82.977081 196.998642,82.567909 197.266006,82.035599 
	C197.761093,81.593849 197.987274,81.275223 198.382263,80.862167 
	C198.762527,80.609535 198.923355,80.410439 199.121918,79.880280 
	C199.291031,79.404747 199.371811,79.219376 199.687576,78.990402 
	C200.273285,78.650269 200.624008,78.353737 200.983490,77.602570 
	C200.994034,74.421875 200.995819,71.695831 200.997589,68.576508 
	C200.994675,67.134697 200.991776,66.086174 200.990662,64.588692 
	C200.648773,60.791367 200.305099,57.442989 199.931824,53.730740 
	C199.885117,51.450367 199.868011,49.533867 199.849762,47.453133 
	C199.848602,47.288895 200.015015,47.005676 200.269485,46.807953 
	C200.987000,45.310066 203.402573,43.593616 199.821899,43.083549 
	C199.854874,43.004475 199.832336,43.174301 199.874115,42.808960 
	C198.677658,41.167614 197.260010,38.717216 196.240540,38.872982 
	C194.414993,39.151905 192.829178,40.999866 191.115082,42.146851 
	C191.087006,42.101700 191.192902,42.092022 190.935608,42.199215 
	C190.533264,42.635017 190.388229,42.963623 190.293381,43.242901 
	C190.343582,43.193569 190.400803,43.322186 190.205002,43.290840 
	C189.896790,43.320595 189.784378,43.381702 189.671967,43.442810 
	C189.820145,43.629856 189.968338,43.816895 190.117798,44.338600 
	C190.083160,45.117802 190.047272,45.562344 189.751923,46.135025 
	C189.276733,46.657135 189.061005,47.051098 188.845276,47.445065 
	C189.429474,47.560898 190.013657,47.676735 190.751663,48.030506 
	C191.595352,48.891788 192.285248,49.515133 192.938812,50.453987 
	C192.283264,51.863209 191.664032,52.956928 191.004074,54.303574 
	C190.922333,54.722298 190.881317,54.888092 190.587433,55.375786 
	C190.504562,63.454750 190.674576,71.211815 190.912506,79.285004 
	C191.023819,80.029778 191.067215,80.458420 190.724274,80.931030 
	C189.552338,82.315750 188.766708,83.656502 187.648148,84.996895 
	C186.871094,84.992737 186.427002,84.988937 185.982895,84.985146 
	C185.333649,83.712997 184.130722,82.445488 184.120010,81.167999 
	C184.001511,67.028282 184.052139,52.886944 184.119476,38.746342 
	C184.124023,37.788914 184.631058,36.833885 184.983353,35.471951 
z"/>
<path fill="#1F66AF" opacity="1.000000" stroke="none" 
	d="
M199.985031,83.995918 
	C200.229523,78.646332 202.781799,82.385422 205.151703,82.640305 
	C207.478958,82.173401 209.156860,81.915092 211.027893,81.940796 
	C213.268677,82.414902 215.316360,82.605011 217.556107,82.812943 
	C218.983734,82.535561 220.668030,82.208321 222.591156,81.969879 
	C223.566711,82.157570 224.303452,82.256454 225.040176,82.355331 
	C225.622955,82.959908 226.205734,83.564491 226.468414,84.584930 
	C223.770294,85.678635 221.392258,86.356476 219.014236,87.034325 
	C216.305939,87.042953 213.597626,87.051590 210.346497,86.662521 
	C206.530792,85.508522 203.257919,84.752220 199.985031,83.995918 
z"/>
<path fill="#2966B0" opacity="1.000000" stroke="none" 
	d="
M199.613144,83.997131 
	C203.257919,84.752220 206.530792,85.508522 209.895325,86.649139 
	C202.356644,87.048264 194.726334,87.063057 186.650146,87.088646 
	C186.157898,86.922119 186.111542,86.744797 186.030121,86.036087 
	C185.992126,85.332184 185.989197,85.159668 185.986282,84.987160 
	C185.986282,84.987160 185.997940,84.996704 185.990417,84.990921 
	C186.427002,84.988937 186.871094,84.992737 188.089111,84.998947 
	C191.578140,84.667580 194.293289,84.333794 197.008423,84.000000 
	C197.752701,83.999451 198.496979,83.998894 199.613144,83.997131 
z"/>
<path fill="#2966B0" opacity="1.000000" stroke="none" 
	d="
M219.477966,87.047325 
	C221.392258,86.356476 223.770294,85.678635 226.583313,84.999176 
	C227.758545,84.996994 228.498779,84.996437 230.011948,84.998260 
	C231.856186,85.003586 232.927475,85.006523 233.998779,85.009460 
	C234.006027,85.198578 234.013290,85.387703 234.041840,85.861267 
	C229.356003,86.450577 224.648849,86.755455 219.477966,87.047325 
z"/>
<path fill="#A2BADB" opacity="1.000000" stroke="none" 
	d="
M174.495697,52.817154 
	C174.242081,51.962280 174.176926,50.850979 174.220078,49.333344 
	C174.446976,50.138248 174.565567,51.349491 174.495697,52.817154 
z"/>
<path fill="#A2BADB" opacity="1.000000" stroke="none" 
	d="
M174.501160,74.851013 
	C174.249222,74.284172 174.178558,73.490883 174.215591,72.310295 
	C174.443008,72.823517 174.562729,73.724045 174.501160,74.851013 
z"/>
<path fill="#A2BADB" opacity="1.000000" stroke="none" 
	d="
M167.943069,41.362846 
	C168.035110,41.181019 168.280441,41.145329 168.889374,41.190681 
	C168.867432,41.350815 168.481888,41.429905 167.943069,41.362846 
z"/>
<path fill="#D8E7F2" opacity="1.000000" stroke="none" 
	d="
M71.164284,63.207500 
	C71.454147,62.996185 71.892883,62.996128 72.660614,62.997467 
	C72.430786,63.138828 71.871971,63.278790 71.164284,63.207500 
z"/>
<path fill="#3A6392" opacity="1.000000" stroke="none" 
	d="
M103.831894,58.452179 
	C103.794136,58.826813 103.497406,59.256615 102.925095,59.714176 
	C102.957321,59.330406 103.265129,58.918873 103.831894,58.452179 
z"/>
<path fill="#3A6392" opacity="1.000000" stroke="none" 
	d="
M102.515030,59.798870 
	C102.599678,60.034389 102.410957,60.362896 101.943573,60.781418 
	C101.857162,60.544907 102.049408,60.218380 102.515030,59.798870 
z"/>
<path fill="#2D67AB" opacity="1.000000" stroke="none" 
	d="
M185.823334,85.081177 
	C185.989197,85.159668 185.992126,85.332184 185.992706,85.763725 
	C185.880386,85.740234 185.770386,85.457710 185.823334,85.081177 
z"/>
<path fill="#3064B2" opacity="1.000000" stroke="none" 
	d="
M119.379486,75.020813 
	C118.695618,73.564133 118.359512,72.160103 118.019341,70.392654 
	C119.456245,70.329597 120.897202,70.629951 122.629173,70.989182 
	C123.483086,72.189255 124.045982,73.330452 124.813950,74.736694 
	C125.012016,75.445480 125.005020,75.889206 124.991989,76.665703 
	C123.233047,76.356796 121.480148,75.715126 119.379486,75.020813 
z"/>
<path fill="#3167A2" opacity="1.000000" stroke="none" 
	d="
M129.250275,76.343781 
	C129.774887,76.072899 130.506302,76.019508 131.602448,75.917633 
	C131.130478,76.099861 130.293793,76.330566 129.250275,76.343781 
z"/>
<path fill="#3167A2" opacity="1.000000" stroke="none" 
	d="
M127.176758,75.092491 
	C127.363129,75.035904 127.664154,75.231133 128.084137,75.679352 
	C127.899193,75.736328 127.595306,75.540321 127.176758,75.092491 
z"/>
<path fill="#C9DCED" opacity="1.000000" stroke="none" 
	d="
M225.374283,82.141815 
	C224.303452,82.256454 223.566711,82.157570 222.546478,81.510605 
	C222.149094,76.157295 222.008850,71.352486 221.930984,66.546677 
	C221.882263,63.539688 220.504700,61.849583 217.416534,61.920658 
	C214.393204,61.990242 212.928619,63.580887 212.993134,66.662987 
	C213.066055,70.146912 213.228073,73.653610 212.910629,77.109924 
	C212.766815,78.675888 211.559570,80.144180 210.834747,81.656784 
	C209.156860,81.915092 207.478958,82.173401 205.507660,82.651276 
	C204.912766,81.779892 204.611237,80.688965 204.223251,78.834953 
	C204.107986,70.381905 204.079163,62.691940 204.050354,55.001976 
	C204.728516,54.597488 205.405899,53.845505 206.084946,53.843979 
	C211.098907,53.832733 216.005035,54.172256 221.117142,53.257874 
	C226.831558,52.235760 229.192551,54.588890 229.885956,60.596676 
	C230.546677,66.321297 230.629349,72.170052 230.249435,77.916855 
	C230.154846,79.347809 227.296448,80.596062 225.374283,82.141815 
M228.119720,77.586174 
	C228.303192,72.547272 229.329453,67.357468 228.460983,62.506908 
	C227.325134,56.163044 221.140198,54.078049 216.033188,57.726761 
	C216.571899,58.152782 217.017776,58.808735 217.521027,58.856178 
	C222.262497,59.303215 224.251450,61.458500 223.096756,66.436234 
	C222.549347,68.796066 223.130859,71.395683 222.953873,73.868988 
	C222.718353,77.160240 224.019638,78.533081 228.119720,77.586174 
M212.451813,60.168976 
	C211.748337,58.907677 211.044846,57.646374 210.341370,56.385067 
	C208.884384,57.581604 206.323898,58.652706 206.171036,59.997494 
	C205.648895,64.590935 205.792328,69.292084 206.085663,73.926575 
	C206.173401,75.312431 207.583374,76.614586 208.387543,77.955078 
	C209.270081,76.526573 210.693359,75.182297 210.931488,73.653435 
	C211.587189,69.443542 211.746475,65.156342 212.451813,60.168976 
z"/>
<path fill="#E4EDF1" opacity="1.000000" stroke="none" 
	d="
M190.840302,55.053890 
	C190.881317,54.888092 190.922333,54.722298 191.446014,54.229111 
	C194.336594,53.923615 196.744492,53.945515 199.201843,54.425888 
	C199.355560,58.232803 199.459854,61.581242 199.435486,65.333069 
	C199.401093,66.848267 199.495316,67.960075 199.485992,69.504257 
	C199.417038,72.605789 199.451614,75.274948 199.393127,78.213974 
	C199.350891,78.667213 199.401733,78.850601 199.452591,79.033997 
	C199.371811,79.219376 199.291031,79.404747 198.892273,79.890884 
	C198.238052,80.344765 198.117767,80.599739 198.213440,80.956589 
	C197.987274,81.275223 197.761093,81.593849 196.862717,81.965736 
	C194.827942,81.997559 193.465378,81.976120 192.022003,81.695755 
	C191.647003,81.246803 191.352768,81.056778 191.060638,80.899231 
	C191.062714,80.931702 191.110596,80.887070 191.110596,80.887070 
	C191.067215,80.458420 191.023819,80.029778 190.984863,78.823021 
	C190.939621,70.381241 190.889969,62.717564 190.840302,55.053890 
z"/>
<path fill="#D4E7F0" opacity="1.000000" stroke="none" 
	d="
M192.975143,50.138481 
	C192.285248,49.515133 191.595352,48.891788 190.706024,47.717262 
	C190.341507,46.779682 190.176453,46.393280 190.011383,46.006882 
	C190.047272,45.562344 190.083160,45.117802 190.244110,44.191280 
	C190.369171,43.709297 190.400803,43.322186 190.400803,43.322186 
	C190.400803,43.322186 190.343582,43.193569 190.546875,43.135799 
	C190.897751,42.749359 191.045319,42.420689 191.192902,42.092022 
	C191.192902,42.092022 191.087006,42.101700 191.468796,42.002911 
	C194.904694,39.854622 197.512772,40.607933 199.832336,43.174301 
	C199.832336,43.174301 199.854874,43.004475 199.874100,43.464321 
	C199.933884,44.951336 199.974457,45.978508 200.015015,47.005676 
	C200.015015,47.005676 199.848602,47.288895 199.504974,47.599174 
	C197.099274,48.652466 195.037201,49.395473 192.975143,50.138481 
z"/>
<path fill="#3D699C" opacity="1.000000" stroke="none" 
	d="
M192.938812,50.453987 
	C195.037201,49.395473 197.099274,48.652466 199.506134,47.763412 
	C199.868011,49.533867 199.885117,51.450367 199.728516,53.706688 
	C199.554794,54.046516 199.152405,53.967411 199.152405,53.967415 
	C196.744492,53.945515 194.336594,53.923615 191.486740,53.976181 
	C191.664032,52.956928 192.283264,51.863209 192.938812,50.453987 
z"/>
<path fill="#1F66AF" opacity="1.000000" stroke="none" 
	d="
M192.102798,81.954681 
	C193.465378,81.976120 194.827942,81.997559 196.593811,82.088867 
	C196.998642,82.567909 197.000183,82.977081 197.005081,83.693130 
	C194.293289,84.333794 191.578140,84.667580 188.422058,84.999313 
	C188.766708,83.656502 189.552338,82.315750 190.724274,80.931030 
	C191.110596,80.887070 191.062714,80.931702 191.165863,81.139999 
	C191.546936,81.550423 191.824875,81.752548 192.102798,81.954681 
z"/>
<path fill="#265794" opacity="1.000000" stroke="none" 
	d="
M203.768829,55.199867 
	C204.079163,62.691940 204.107986,70.381905 204.054489,78.534714 
	C203.648926,76.133911 203.077576,73.272011 203.057281,70.406219 
	C203.021866,65.404663 203.325668,60.400707 203.768829,55.199867 
z"/>
<path fill="#3A5F8F" opacity="1.000000" stroke="none" 
	d="
M190.587433,55.375786 
	C190.889969,62.717564 190.939621,70.381241 190.916931,78.506897 
	C190.674576,71.211815 190.504562,63.454750 190.587433,55.375786 
z"/>
<path fill="#285995" opacity="1.000000" stroke="none" 
	d="
M199.201843,54.425888 
	C199.152405,53.967411 199.554794,54.046516 199.758118,54.070564 
	C200.305099,57.442989 200.648773,60.791367 200.753052,64.570923 
	C200.198914,64.954918 199.882401,64.930779 199.564133,64.929680 
	C199.459854,61.581242 199.355560,58.232803 199.201843,54.425888 
z"/>
<path fill="#3D699C" opacity="1.000000" stroke="none" 
	d="
M199.874115,42.808960 
	C197.512772,40.607933 194.904694,39.854622 191.496872,42.048058 
	C192.829178,40.999866 194.414993,39.151905 196.240540,38.872982 
	C197.260010,38.717216 198.677658,41.167614 199.874115,42.808960 
z"/>
<path fill="#285995" opacity="1.000000" stroke="none" 
	d="
M199.486206,77.944115 
	C199.451614,75.274948 199.417038,72.605789 199.720901,69.494431 
	C200.370834,69.010132 200.683578,68.982643 200.997620,68.969780 
	C200.995819,71.695831 200.994034,74.421875 200.735748,77.582886 
	C200.150253,77.966393 199.819229,77.941818 199.486206,77.944115 
z"/>
<path fill="#1F66AF" opacity="1.000000" stroke="none" 
	d="
M233.952393,84.654762 
	C232.927475,85.006523 231.856186,85.003586 230.382385,84.998482 
	C230.395493,84.077995 230.811111,83.159676 231.226746,82.241356 
	C232.119827,82.927589 233.012909,83.613823 233.952393,84.654762 
z"/>
<path fill="#3D699C" opacity="1.000000" stroke="none" 
	d="
M200.997589,68.576508 
	C200.683578,68.982643 200.370834,69.010132 199.824448,69.062073 
	C199.495316,67.960075 199.401093,66.848267 199.435486,65.333069 
	C199.882401,64.930779 200.198914,64.954918 200.751282,65.019875 
	C200.991776,66.086174 200.994675,67.134697 200.997589,68.576508 
z"/>
<path fill="#3D699C" opacity="1.000000" stroke="none" 
	d="
M200.269485,46.807953 
	C199.974457,45.978508 199.933884,44.951336 199.841125,43.543396 
	C203.402573,43.593616 200.987000,45.310066 200.269485,46.807953 
z"/>
<path fill="#3D699C" opacity="1.000000" stroke="none" 
	d="
M189.751923,46.135025 
	C190.176453,46.393280 190.341507,46.779682 190.552216,47.479328 
	C190.013657,47.676735 189.429474,47.560898 188.845276,47.445065 
	C189.061005,47.051098 189.276733,46.657135 189.751923,46.135025 
z"/>
<path fill="#3D699C" opacity="1.000000" stroke="none" 
	d="
M199.393127,78.213974 
	C199.819229,77.941818 200.150253,77.966393 200.726990,78.037521 
	C200.624008,78.353737 200.273285,78.650269 199.687576,78.990402 
	C199.401733,78.850601 199.350891,78.667213 199.393127,78.213974 
z"/>
<path fill="#3D699C" opacity="1.000000" stroke="none" 
	d="
M198.382263,80.862167 
	C198.117767,80.599739 198.238052,80.344765 198.803955,80.181061 
	C198.923355,80.410439 198.762527,80.609535 198.382263,80.862167 
z"/>
<path fill="#3D699C" opacity="1.000000" stroke="none" 
	d="
M190.935608,42.199215 
	C191.045319,42.420689 190.897751,42.749359 190.496674,43.185131 
	C190.388229,42.963623 190.533264,42.635017 190.935608,42.199215 
z"/>
<path fill="#3D699C" opacity="1.000000" stroke="none" 
	d="
M190.205002,43.290840 
	C190.400803,43.322186 190.369171,43.709297 190.242859,43.856613 
	C189.968338,43.816895 189.820145,43.629856 189.671967,43.442810 
	C189.784378,43.381702 189.896790,43.320595 190.205002,43.290840 
z"/>
<path fill="#2A63A9" opacity="1.000000" stroke="none" 
	d="
M211.027878,81.940788 
	C211.559570,80.144180 212.766815,78.675888 212.910629,77.109924 
	C213.228073,73.653610 213.066055,70.146912 212.993134,66.662987 
	C212.928619,63.580887 214.393204,61.990242 217.416534,61.920658 
	C220.504700,61.849583 221.882263,63.539688 221.930984,66.546677 
	C222.008850,71.352486 222.149094,76.157295 222.307632,81.421799 
	C220.668030,82.208321 218.983734,82.535561 217.556107,82.812943 
	C215.316360,82.605011 213.268677,82.414902 211.027878,81.940788 
z"/>
<path fill="#ECEAE8" opacity="1.000000" stroke="none" 
	d="
M227.710815,77.745842 
	C224.019638,78.533081 222.718353,77.160240 222.953873,73.868988 
	C223.130859,71.395683 222.549347,68.796066 223.096756,66.436234 
	C224.251450,61.458500 222.262497,59.303215 217.521027,58.856178 
	C217.017776,58.808735 216.571899,58.152782 216.033188,57.726761 
	C221.140198,54.078049 227.325134,56.163044 228.460983,62.506908 
	C229.329453,67.357468 228.303192,72.547272 227.710815,77.745842 
z"/>
<path fill="#EBEBE9" opacity="1.000000" stroke="none" 
	d="
M212.276978,60.534348 
	C211.746475,65.156342 211.587189,69.443542 210.931488,73.653435 
	C210.693359,75.182297 209.270081,76.526573 208.387543,77.955078 
	C207.583374,76.614586 206.173401,75.312431 206.085663,73.926575 
	C205.792328,69.292084 205.648895,64.590935 206.171036,59.997494 
	C206.323898,58.652706 208.884384,57.581604 210.341370,56.385071 
	C211.044846,57.646374 211.748337,58.907677 212.276978,60.534348 
z"/>
<path fill="#2D67AB" opacity="1.000000" stroke="none" 
	d="
M192.022003,81.695755 
	C191.824875,81.752548 191.546936,81.550423 191.163788,81.107529 
	C191.352768,81.056778 191.647003,81.246803 192.022003,81.695755 
z"/>
</svg>