<svg version="1.1" id="Layer_1" xmlns="http://www.w3.org/2000/svg" xmlns:xlink="http://www.w3.org/1999/xlink" x="0px" y="0px"
	 width="100%" viewBox="0 0 140 141" enable-background="new 0 0 140 141" xml:space="preserve">
<path fill="#EFEFEF" opacity="1.000000" stroke="none" 
	d="
M75.000000,142.000000 
	C50.000000,142.000000 25.500000,142.000000 1.000000,142.000000 
	C1.000000,95.000000 1.000000,48.000000 1.000000,1.000000 
	C47.666668,1.000000 94.333336,1.000000 141.000000,1.000000 
	C141.000000,48.000000 141.000000,95.000000 141.000000,142.000000 
	C119.166664,142.000000 97.333336,142.000000 75.000000,142.000000 
M112.000526,103.001656 
	C112.000526,103.001656 112.016228,103.006699 112.449806,102.567665 
	C112.590965,101.969460 112.732117,101.371262 113.310669,100.124954 
	C113.374680,95.684250 113.438698,91.243553 113.620567,85.910133 
	C113.565491,81.672539 113.510414,77.434952 113.806618,72.315086 
	C113.706993,69.496544 113.607361,66.678009 113.680763,62.959194 
	C113.560593,57.593864 113.440422,52.228539 113.623611,46.209980 
	C113.397202,44.845753 113.170792,43.481529 112.997841,41.423836 
	C112.731514,40.589508 112.465187,39.755184 112.089516,38.271946 
	C111.487305,37.130211 110.885094,35.988480 110.118423,34.159302 
	C107.121162,31.756695 104.123894,29.354090 100.635696,26.423574 
	C98.758087,26.088869 96.880478,25.754162 94.358650,25.206993 
	C93.908318,25.217869 93.457977,25.228743 92.084915,25.055954 
	C76.485199,25.035494 60.884453,24.915478 45.286606,25.076468 
	C42.069950,25.109667 38.864101,26.190313 34.956676,26.857578 
	C31.547855,28.737574 27.190731,29.648001 26.290524,34.856487 
	C25.877623,35.266556 25.464722,35.676624 24.593096,36.519257 
	C24.143106,37.668839 23.693117,38.818417 23.079149,40.760120 
	C23.054705,41.835903 23.030258,42.911686 22.634602,44.681889 
	C22.626881,47.142570 22.619160,49.603249 22.391628,52.901379 
	C22.494047,56.260227 22.596468,59.619076 22.507160,63.844028 
	C22.565887,66.185829 22.624613,68.527626 22.397554,71.618874 
	C22.507351,74.101669 22.617147,76.584457 22.445078,79.949448 
	C22.528719,84.994553 22.612360,90.039650 22.448301,95.573784 
	C22.579039,96.085922 22.709776,96.598061 22.843504,97.902588 
	C23.347946,99.910362 23.852388,101.918129 24.516239,104.574951 
	C27.746098,111.646698 33.286449,115.379898 41.664486,116.135048 
	C42.112568,116.069099 42.560646,116.003151 43.660751,116.127296 
	C44.107494,116.078400 44.554234,116.029510 45.918175,116.189697 
	C61.227009,116.196686 76.539749,116.390335 91.841736,116.069862 
	C95.348236,115.996437 98.817665,114.153091 102.925880,112.827835 
	C105.003792,111.344208 107.081711,109.860588 109.658180,108.067688 
	C109.790039,107.710663 109.921906,107.353630 110.279976,106.855965 
	C110.279976,106.855965 110.231613,106.594032 110.750824,106.206879 
	C110.868874,105.800385 110.986923,105.393890 111.301468,104.851906 
	C111.301468,104.851906 111.255615,104.617683 111.764473,104.236694 
	C111.847221,103.829544 111.929977,103.422394 112.000526,103.001656 
z"/>
<path fill="#1ABF36" opacity="1.000000" stroke="none" 
	d="
M110.231613,106.594032 
	C110.231613,106.594032 110.279976,106.855965 109.918678,107.081482 
	C109.424789,107.663651 109.292206,108.020302 109.159622,108.376953 
	C107.081711,109.860588 105.003792,111.344208 102.174141,112.942307 
	C98.620087,113.371902 95.817780,113.687019 93.008141,113.745575 
	C92.996437,113.317970 92.992050,113.146919 92.682098,112.695877 
	C75.450577,112.281937 58.524605,112.147522 41.598560,112.022591 
	C41.467743,112.021622 41.215576,112.185982 41.223457,112.212318 
	C41.294342,112.449310 41.375362,112.701645 41.528099,112.888382 
	C41.610546,112.989182 41.838535,112.970940 41.872578,113.297028 
	C41.494656,114.384979 41.245018,115.182297 40.995380,115.979622 
	C33.286449,115.379898 27.746098,111.646698 24.710712,104.095634 
	C25.616505,102.061493 26.327822,100.506676 27.279921,98.425545 
	C31.191551,98.585213 32.843357,96.075592 31.431057,90.987541 
	C32.971348,92.782326 33.924553,93.893021 34.807907,95.340408 
	C34.503666,98.735413 34.269279,101.793732 34.002125,105.279587 
	C36.244179,104.765686 38.126762,104.273972 40.033646,103.909348 
	C44.332569,103.087311 48.643520,102.328148 53.053951,101.827866 
	C53.692520,102.263954 54.226719,102.415588 55.057907,102.514420 
	C55.897030,102.699036 56.439167,102.936440 57.021126,103.452087 
	C57.711773,103.806145 58.362595,103.881958 59.381973,103.936890 
	C60.194374,104.110413 60.638214,104.304832 61.243824,104.714470 
	C62.273952,104.939919 63.142307,104.950157 64.461975,104.910599 
	C67.938339,104.894341 70.963387,104.927872 74.217041,105.231400 
	C77.306053,104.430214 80.166473,103.359024 83.205025,102.133682 
	C83.383163,101.979530 83.851700,101.930008 84.248993,101.962769 
	C87.237740,101.889626 89.839767,101.799179 90.231064,97.997498 
	C90.884476,97.398697 91.391602,97.071320 92.121124,97.067146 
	C94.338638,97.900482 96.333824,98.831635 98.328812,98.831200 
	C102.218697,98.830345 106.108467,98.308083 110.004761,98.286339 
	C110.103600,99.054596 110.195953,99.538261 110.288300,100.021919 
	C110.509636,99.939087 110.730972,99.856255 110.952309,99.773422 
	C110.635399,99.181946 110.318497,98.590462 109.998077,97.622665 
	C109.992058,96.493324 109.989548,95.740303 110.292404,94.990906 
	C111.003983,95.007416 111.410202,95.020302 111.977737,95.374496 
	C112.283478,97.170395 112.427887,98.624977 112.400421,100.330811 
	C112.157776,101.390274 112.086998,102.198486 112.016228,103.006699 
	C112.016228,103.006699 112.000526,103.001656 111.764221,103.208450 
	C111.437149,103.816055 111.346382,104.216866 111.255615,104.617683 
	C111.255615,104.617683 111.301468,104.851906 110.941452,105.111847 
	C110.464821,105.779213 110.348221,106.186623 110.231613,106.594032 
z"/>
<path fill="#57EC6E" opacity="1.000000" stroke="none" 
	d="
M93.007645,25.239618 
	C93.457977,25.228743 93.908318,25.217869 94.812317,25.645649 
	C97.219528,26.373363 99.173080,26.662424 101.126633,26.951485 
	C104.123894,29.354090 107.121162,31.756695 109.893402,34.700226 
	C107.240051,38.330647 104.616905,38.867851 102.012589,35.669685 
	C100.956711,36.989971 100.064056,38.030617 99.258453,39.134769 
	C98.454781,40.236271 97.738312,41.401402 96.587769,43.135136 
	C94.857452,41.159634 93.699181,39.130482 91.958260,37.993439 
	C88.064003,35.450001 83.786514,33.788811 78.522858,35.134117 
	C74.125061,34.788208 70.154099,34.444981 65.829002,33.950119 
	C62.658295,34.563034 59.841709,35.327591 57.013786,36.055855 
	C57.002449,36.019566 57.068493,36.057243 56.657249,36.032150 
	C52.352051,36.607098 48.230774,36.720993 45.715935,41.017727 
	C44.328358,42.477646 43.194107,43.732121 41.673813,44.987923 
	C40.292362,44.609924 38.398613,44.102886 38.431755,43.869778 
	C39.508739,36.293934 34.050472,37.857159 30.143913,38.246323 
	C26.827442,38.576706 27.107292,36.690521 26.910765,34.727016 
	C27.190731,29.648001 31.547855,28.737574 35.619308,27.027653 
	C39.189449,27.466711 42.096958,27.735695 45.005272,28.248596 
	C45.006081,28.492512 45.015388,28.980375 44.941254,29.270592 
	C60.349464,29.681541 75.831764,29.812201 91.314339,29.883041 
	C91.874428,29.885603 92.437218,29.299572 92.998657,28.743034 
	C92.998558,28.498217 92.999084,28.008581 92.999313,27.662338 
	C93.002251,26.623936 93.004944,25.931776 93.007645,25.239618 
z"/>
<path fill="#4EE569" opacity="1.000000" stroke="none" 
	d="
M78.949692,35.136803 
	C83.786514,33.788811 88.064003,35.450001 91.958260,37.993439 
	C93.699181,39.130482 94.857452,41.159634 96.587769,43.135136 
	C97.738312,41.401402 98.454781,40.236271 99.258453,39.134769 
	C100.064056,38.030617 100.956711,36.989971 102.012589,35.669685 
	C104.616905,38.867851 107.240051,38.330647 109.975632,35.043945 
	C110.885094,35.988480 111.487305,37.130211 111.918015,38.793888 
	C111.832535,40.541817 111.918556,41.767803 111.738663,43.245293 
	C110.593109,48.253334 106.890503,47.938431 103.397728,47.980850 
	C101.295876,48.006382 99.193634,47.999645 96.922501,47.713791 
	C90.818848,43.325718 84.884270,39.231262 78.949692,35.136803 
z"/>
<path fill="#45E061" opacity="1.000000" stroke="none" 
	d="
M97.091568,48.007408 
	C99.193634,47.999645 101.295876,48.006382 103.397728,47.980850 
	C106.890503,47.938431 110.593109,48.253334 111.920883,43.262974 
	C112.369034,43.029156 112.727264,43.105335 112.768654,43.427364 
	C112.980110,44.787331 113.150185,45.825272 113.320251,46.863209 
	C113.440422,52.228539 113.560593,57.593864 113.338913,63.422531 
	C112.656906,63.921898 112.316734,63.957928 111.704590,63.782677 
	C109.598763,63.096825 107.764915,62.622242 106.005844,62.167015 
	C104.919579,61.197479 103.735695,60.140816 102.343018,58.811268 
	C100.453339,55.028057 98.772453,51.517731 97.091568,48.007408 
M105.484329,57.572582 
	C105.484329,57.572582 105.433517,57.481106 105.484329,57.572582 
z"/>
<path fill="#23C83F" opacity="1.000000" stroke="none" 
	d="
M34.877754,95.003716 
	C33.924553,93.893021 32.971348,92.782326 31.431057,90.987541 
	C32.843357,96.075592 31.191551,98.585213 27.279921,98.425545 
	C26.327822,100.506676 25.616505,102.061493 24.631008,103.771111 
	C23.852388,101.918129 23.347946,99.910362 22.936331,97.255013 
	C22.918106,96.099876 22.807055,95.592316 22.696003,95.084755 
	C22.612360,90.039650 22.528719,84.994553 22.937244,79.534897 
	C24.258671,81.578888 25.087931,84.037430 25.821522,86.212334 
	C28.233952,86.365005 30.602283,86.514885 32.973251,86.664932 
	C33.133789,85.677002 33.291813,84.704536 33.462688,83.652985 
	C34.832333,84.625900 35.874565,85.366249 37.028709,86.286186 
	C37.313622,86.699219 37.534138,86.872025 37.902718,87.224091 
	C37.988861,87.636780 37.974468,87.809586 37.644821,88.136520 
	C37.256886,89.202454 37.184204,90.114250 36.964153,91.330872 
	C36.170441,92.758362 35.524097,93.881042 34.877754,95.003716 
z"/>
<path fill="#59F076" opacity="1.000000" stroke="none" 
	d="
M45.004467,28.004679 
	C42.096958,27.735695 39.189449,27.466711 35.967606,26.992954 
	C38.864101,26.190313 42.069950,25.109667 45.286606,25.076468 
	C60.884453,24.915478 76.485199,25.035494 92.546280,25.147785 
	C93.004944,25.931776 93.002251,26.623936 92.530769,27.659290 
	C76.376152,28.003218 60.690308,28.003948 45.004467,28.004679 
z"/>
<path fill="#4EE86A" opacity="1.000000" stroke="none" 
	d="
M26.600643,34.791752 
	C27.107292,36.690521 26.827442,38.576706 30.143913,38.246323 
	C34.050472,37.857159 39.508739,36.293934 38.431755,43.869778 
	C38.398613,44.102886 40.292362,44.609924 41.657059,45.277328 
	C41.471714,46.070530 40.917080,46.575657 40.004574,47.094269 
	C38.090157,48.066566 36.533615,49.025372 34.787437,49.659843 
	C29.461599,46.734715 28.229929,47.411903 27.998356,52.974632 
	C27.989742,52.990036 27.958838,53.007084 27.636696,53.009804 
	C26.884884,53.014240 26.455214,53.015957 25.872513,52.682434 
	C25.140585,50.557846 24.561687,48.768497 23.980427,46.646019 
	C23.653978,45.537750 23.329897,44.762611 23.005814,43.987469 
	C23.030258,42.911686 23.054705,41.835903 23.382206,40.244453 
	C24.123920,39.485447 24.562580,39.242104 25.003290,39.408463 
	C25.005342,41.488964 25.005342,43.159752 25.005342,44.830544 
	C25.414295,44.790585 25.823250,44.750626 26.232203,44.710667 
	C25.821112,42.807323 25.410021,40.903980 25.090111,38.758450 
	C25.138134,37.706406 25.094978,36.896549 25.051823,36.086693 
	C25.464722,35.676624 25.877623,35.266556 26.600643,34.791752 
z"/>
<path fill="#30CE4C" opacity="1.000000" stroke="none" 
	d="
M36.916801,86.106590 
	C35.874565,85.366249 34.832333,84.625900 33.462688,83.652985 
	C33.291813,84.704536 33.133789,85.677002 32.973251,86.664932 
	C30.602283,86.514885 28.233952,86.365005 25.821522,86.212334 
	C25.087931,84.037430 24.258671,81.578888 23.078178,79.093796 
	C22.617147,76.584457 22.507351,74.101669 22.917450,71.332764 
	C27.356634,76.240997 27.356634,76.240997 31.623516,70.870750 
	C32.378071,71.981964 33.061897,72.989014 33.861603,74.379028 
	C35.076668,78.418541 36.175850,82.075104 37.184235,85.824211 
	C37.093437,85.916756 36.916801,86.106590 36.916801,86.106590 
z"/>
<path fill="#3FDB5A" opacity="1.000000" stroke="none" 
	d="
M34.977074,49.984177 
	C36.533615,49.025372 38.090157,48.066566 39.907120,47.442482 
	C39.460659,49.517681 38.753777,51.258163 37.798256,53.208778 
	C36.814213,54.975636 36.078808,56.532352 35.020245,58.246666 
	C34.511688,59.312698 34.326298,60.221138 34.201668,61.143543 
	C34.262432,61.157509 34.307426,61.273800 34.022503,61.141693 
	C32.078758,62.450657 30.419941,63.891731 28.528540,65.534859 
	C26.844711,64.796318 24.771801,63.887119 22.698887,62.977924 
	C22.596468,59.619076 22.494047,56.260227 22.797211,52.324745 
	C23.462795,50.158455 23.722794,48.568802 23.982792,46.979145 
	C24.561687,48.768497 25.140585,50.557846 25.911259,52.968483 
	C26.417496,53.894043 26.731955,54.198318 27.046410,54.502594 
	C27.350552,54.004089 27.654696,53.505589 27.958838,53.007084 
	C27.958838,53.007084 27.989742,52.990036 28.335960,53.043663 
	C30.073532,54.612938 31.464886,56.128590 32.922310,57.716209 
	C33.548630,55.359379 34.262852,52.671780 34.977074,49.984177 
z"/>
<path fill="#14BE37" opacity="1.000000" stroke="none" 
	d="
M93.015465,114.002136 
	C95.817780,113.687019 98.620087,113.371902 101.863281,113.090546 
	C98.817665,114.153091 95.348236,115.996437 91.841736,116.069862 
	C76.539749,116.390335 61.227009,116.196686 45.460701,115.839249 
	C45.003231,115.488792 44.992592,114.997086 45.298538,114.713448 
	C47.414303,114.287704 49.223827,114.026840 51.033989,114.022362 
	C65.027748,113.987679 79.021622,114.002586 93.015465,114.002136 
z"/>
<path fill="#3BD455" opacity="1.000000" stroke="none" 
	d="
M22.603024,63.410976 
	C24.771801,63.887119 26.844711,64.796318 28.528540,65.534859 
	C30.419941,63.891731 32.078758,62.450657 34.009144,61.585361 
	C34.102379,66.106117 33.924053,70.051094 33.745724,73.996071 
	C33.061897,72.989014 32.378071,71.981964 31.623516,70.870750 
	C27.356634,76.240997 27.356634,76.240997 23.060341,70.958038 
	C22.624613,68.527626 22.565887,66.185829 22.603024,63.410976 
z"/>
<path fill="#25D249" opacity="1.000000" stroke="none" 
	d="
M113.455338,73.197357 
	C113.510414,77.434952 113.565491,81.672539 113.391975,86.370369 
	C113.163383,86.830605 112.847404,86.958908 112.640236,86.975693 
	C112.433067,86.992485 112.016663,87.013206 111.718147,86.877045 
	C110.613617,85.825874 109.807610,84.910866 108.995300,83.627960 
	C108.659424,81.841202 108.329849,80.422340 108.396240,78.983658 
	C109.526772,77.929504 110.515762,76.987328 110.932114,75.837746 
	C111.463326,74.371010 111.531937,72.736732 111.859634,71.456398 
	C112.431320,72.224541 112.943329,72.710953 113.455338,73.197357 
z"/>
<path fill="#16BA23" opacity="1.000000" stroke="none" 
	d="
M93.008141,113.745575 
	C79.021622,114.002586 65.027748,113.987679 51.033989,114.022362 
	C49.223827,114.026840 47.414303,114.287704 45.010506,114.739250 
	C43.947262,115.344864 43.477993,115.641029 43.008728,115.937202 
	C42.560646,116.003151 42.112568,116.069099 41.329933,116.057335 
	C41.245018,115.182297 41.494656,114.384979 42.341141,113.296616 
	C59.621212,112.995682 76.304436,112.985771 92.987656,112.975861 
	C92.992050,113.146919 92.996437,113.317970 93.008141,113.745575 
z"/>
<path fill="#6CDA7E" opacity="1.000000" stroke="none" 
	d="
M112.847404,86.958908 
	C112.847404,86.958908 113.163383,86.830605 113.333054,86.816727 
	C113.438698,91.243553 113.374680,95.684250 113.005859,100.280434 
	C112.701057,100.435913 112.572296,100.079567 112.572296,100.079567 
	C112.427887,98.624977 112.283478,97.170395 112.035782,94.942383 
	C111.969688,92.143906 112.006866,90.118843 112.253876,87.963440 
	C112.743744,87.608475 112.871643,87.317078 112.847404,86.958908 
z"/>
<path fill="#6CDA7E" opacity="1.000000" stroke="none" 
	d="
M113.630981,72.756226 
	C112.943329,72.710953 112.431320,72.224541 111.900894,71.001396 
	C111.913841,68.174423 111.945206,66.084190 111.976570,63.993954 
	C112.316734,63.957928 112.656906,63.921898 113.252396,63.872669 
	C113.607361,66.678009 113.706993,69.496544 113.630981,72.756226 
z"/>
<path fill="#5AE072" opacity="1.000000" stroke="none" 
	d="
M23.980427,46.646019 
	C23.722794,48.568802 23.462795,50.158455 22.907116,51.906021 
	C22.619160,49.603249 22.626881,47.142570 22.820208,44.334679 
	C23.329897,44.762611 23.653978,45.537750 23.980427,46.646019 
z"/>
<path fill="#59F076" opacity="1.000000" stroke="none" 
	d="
M100.881165,26.687531 
	C99.173080,26.662424 97.219528,26.373363 95.134422,25.751881 
	C96.880478,25.754162 98.758087,26.088869 100.881165,26.687531 
z"/>
<path fill="#5AE072" opacity="1.000000" stroke="none" 
	d="
M25.001238,38.998756 
	C24.562580,39.242104 24.123920,39.485447 23.464195,39.848396 
	C23.693117,38.818417 24.143106,37.668839 24.822460,36.302975 
	C25.094978,36.896549 25.138134,37.706406 25.090645,38.758133 
	C25.000000,39.000000 25.001238,38.998756 25.001238,38.998756 
z"/>
<path fill="#6CDA7E" opacity="1.000000" stroke="none" 
	d="
M113.471931,46.536594 
	C113.150185,45.825272 112.980110,44.787331 112.831375,43.181732 
	C112.883270,42.448479 112.913834,42.282890 112.944389,42.117302 
	C113.170792,43.481529 113.397202,44.845753 113.471931,46.536594 
z"/>
<path fill="#57EC6E" opacity="1.000000" stroke="none" 
	d="
M112.971115,41.770569 
	C112.913834,42.282890 112.883270,42.448479 112.789993,42.859703 
	C112.727264,43.105335 112.369034,43.029156 112.186813,43.011475 
	C111.918556,41.767803 111.832535,40.541817 111.972687,39.118343 
	C112.465187,39.755184 112.731514,40.589508 112.971115,41.770569 
z"/>
<path fill="#2AC546" opacity="1.000000" stroke="none" 
	d="
M112.400421,100.330811 
	C112.572296,100.079567 112.701057,100.435913 112.787170,100.604492 
	C112.732117,101.371262 112.590965,101.969460 112.233017,102.787186 
	C112.086998,102.198486 112.157776,101.390274 112.400421,100.330811 
z"/>
<path fill="#00B927" opacity="1.000000" stroke="none" 
	d="
M43.334740,116.032249 
	C43.477993,115.641029 43.947262,115.344864 44.704559,115.022888 
	C44.992592,114.997086 45.003231,115.488792 45.002106,115.734711 
	C44.554234,116.029510 44.107494,116.078400 43.334740,116.032249 
z"/>
<path fill="#5AE072" opacity="1.000000" stroke="none" 
	d="
M22.572151,95.329269 
	C22.807055,95.592316 22.918106,96.099876 22.934835,96.858818 
	C22.709776,96.598061 22.579039,96.085922 22.572151,95.329269 
z"/>
<path fill="#2AC546" opacity="1.000000" stroke="none" 
	d="
M111.510048,104.427185 
	C111.346382,104.216866 111.437149,103.816055 111.770325,103.215240 
	C111.929977,103.422394 111.847221,103.829544 111.510048,104.427185 
z"/>
<path fill="#2AC546" opacity="1.000000" stroke="none" 
	d="
M109.408897,108.222321 
	C109.292206,108.020302 109.424789,107.663651 109.805573,107.151810 
	C109.921906,107.353630 109.790039,107.710663 109.408897,108.222321 
z"/>
<path fill="#2AC546" opacity="1.000000" stroke="none" 
	d="
M110.491226,106.400452 
	C110.348221,106.186623 110.464821,105.779213 110.843201,105.179596 
	C110.986923,105.393890 110.868874,105.800385 110.491226,106.400452 
z"/>
<path fill="#E3E7E2" opacity="1.000000" stroke="none" 
	d="
M38.046898,52.998642 
	C38.753777,51.258163 39.460659,49.517681 40.264992,47.428993 
	C40.917080,46.575657 41.471714,46.070530 42.043098,45.275997 
	C43.194107,43.732121 44.328358,42.477646 46.094872,41.037144 
	C50.174255,39.253155 53.621376,37.655201 57.068493,36.057243 
	C57.068493,36.057243 57.002449,36.019566 57.414055,36.054169 
	C60.611481,35.426430 63.397305,34.764095 66.183128,34.101757 
	C70.154099,34.444981 74.125061,34.788208 78.522858,35.134121 
	C84.884270,39.231262 90.818848,43.325718 96.922501,47.713791 
	C98.772453,51.517731 100.453339,55.028057 102.443909,59.228157 
	C102.856529,66.279091 102.959473,72.640251 102.943367,79.148026 
	C102.824326,79.294640 102.838486,79.672081 102.621094,79.938553 
	C102.146973,81.075943 101.890244,81.946861 101.439720,83.096848 
	C99.865883,85.916733 98.485832,88.457550 96.960724,91.295929 
	C95.176674,93.310303 93.537697,95.027122 91.898720,96.743950 
	C91.391602,97.071320 90.884476,97.398697 89.903168,98.046074 
	C87.569893,99.554054 85.710793,100.742035 83.851700,101.930008 
	C83.851700,101.930008 83.383163,101.979530 82.833809,102.120171 
	C79.519112,103.161011 76.753777,104.061203 73.988434,104.961411 
	C70.963387,104.927872 67.938339,104.894341 64.230560,104.697510 
	C62.725910,104.522552 61.903980,104.510902 61.082054,104.499252 
	C60.638214,104.304832 60.194374,104.110413 59.220192,103.690292 
	C58.120338,103.367676 57.550823,103.270760 56.981304,103.173843 
	C56.439167,102.936440 55.897030,102.699036 54.911934,102.273682 
	C53.962505,101.904968 53.456043,101.724190 52.949577,101.543411 
	C48.643520,102.328148 44.332569,103.087311 40.033646,103.909348 
	C38.126762,104.273972 36.244179,104.765686 34.002125,105.279587 
	C34.269279,101.793732 34.503666,98.735413 34.807903,95.340408 
	C35.524097,93.881042 36.170441,92.758362 37.190147,91.553894 
	C37.917538,92.406448 38.271557,93.340805 38.625576,94.275154 
	C39.122540,94.081566 39.619503,93.887978 40.116467,93.694382 
	C39.397667,91.790390 38.678867,89.886391 37.960072,87.982391 
	C37.974468,87.809586 37.988861,87.636780 37.953117,86.980537 
	C37.902981,86.497101 37.986298,86.006531 38.237755,85.800018 
	C39.665630,84.393791 40.842045,83.194092 42.269585,82.162521 
	C42.949181,83.233185 43.377659,84.135712 43.573177,85.136124 
	C39.188923,84.494446 40.203430,87.161049 40.304520,89.698112 
	C41.711174,89.422638 42.793392,89.210701 43.873783,89.357422 
	C43.254345,91.473763 42.636726,93.231438 41.835346,95.199791 
	C43.528107,98.166344 43.914875,98.152893 49.229012,95.068825 
	C49.654900,94.982475 49.831123,94.982986 50.410610,95.003822 
	C51.891819,95.006729 52.969765,94.989304 54.449505,95.017578 
	C59.187023,96.196686 63.468563,97.954041 67.869530,98.336243 
	C77.639481,99.184692 84.983009,94.221680 91.123550,87.129013 
	C91.100456,87.098732 91.060738,87.163010 91.302689,87.065186 
	C91.659050,86.656410 91.773460,86.345467 92.125565,85.770317 
	C97.974365,79.422707 98.949966,72.295013 97.204453,64.218552 
	C97.162872,63.273838 97.005966,62.638905 96.855339,61.719032 
	C96.641579,61.135990 96.421532,60.837887 96.193924,60.266342 
	C96.025047,59.669102 95.863747,59.345303 95.689484,58.704220 
	C94.818306,56.913300 93.960075,55.439663 93.014252,53.633633 
	C91.959740,52.162651 90.995483,51.021790 90.025475,49.885826 
	C78.254807,36.101509 54.576569,37.982224 44.654282,53.659859 
	C43.985668,54.245861 43.550701,54.642368 42.800003,54.886120 
	C41.005150,54.155125 39.526024,53.576885 38.046898,52.998642 
z"/>
<path fill="#24C841" opacity="1.000000" stroke="none" 
	d="
M97.105789,90.998367 
	C98.485832,88.457550 99.865883,85.916733 101.779175,83.158241 
	C102.541206,82.959969 102.769997,82.979378 102.999603,83.335663 
	C104.634201,90.585136 107.006615,83.787636 109.001595,83.995865 
	C109.807610,84.910866 110.613617,85.825874 111.721375,87.147202 
	C112.030098,87.733604 112.037071,87.913689 112.044052,88.093781 
	C112.006866,90.118843 111.969688,92.143906 111.874466,94.601074 
	C111.410202,95.020302 111.003983,95.007416 109.997360,94.714569 
	C105.052681,94.173500 100.712578,93.897446 97.105789,90.998367 
z"/>
<path fill="#2AC546" opacity="1.000000" stroke="none" 
	d="
M96.960724,91.295929 
	C100.712578,93.897446 105.052681,94.173500 109.692001,94.710945 
	C109.989548,95.740303 109.992058,96.493324 109.997284,97.623177 
	C110.000000,98.000000 109.998283,98.001740 109.998283,98.001740 
	C106.108467,98.308083 102.218697,98.830345 98.328812,98.831200 
	C96.333824,98.831635 94.338638,97.900482 92.121124,97.067146 
	C93.537697,95.027122 95.176674,93.310303 96.960724,91.295929 
z"/>
<path fill="#0DC03E" opacity="1.000000" stroke="none" 
	d="
M92.682098,112.695877 
	C76.304436,112.985771 59.621212,112.995682 42.469425,113.005997 
	C41.838535,112.970940 41.610546,112.989182 41.528099,112.888382 
	C41.375362,112.701645 41.294342,112.449310 41.223457,112.212318 
	C41.215576,112.185982 41.467743,112.021622 41.598560,112.022591 
	C58.524605,112.147522 75.450577,112.281937 92.682098,112.695877 
z"/>
<path fill="#2AC546" opacity="1.000000" stroke="none" 
	d="
M74.217041,105.231400 
	C76.753777,104.061203 79.519112,103.161011 82.655670,102.274323 
	C80.166473,103.359024 77.306053,104.430214 74.217041,105.231400 
z"/>
<path fill="#2AC546" opacity="1.000000" stroke="none" 
	d="
M84.248993,101.962769 
	C85.710793,100.742035 87.569893,99.554054 89.756874,98.317505 
	C89.839767,101.799179 87.237740,101.889626 84.248993,101.962769 
z"/>
<path fill="#2AC546" opacity="1.000000" stroke="none" 
	d="
M61.243824,104.714462 
	C61.903980,104.510902 62.725910,104.522552 63.779251,104.747299 
	C63.142307,104.950157 62.273952,104.939919 61.243824,104.714462 
z"/>
<path fill="#2AC546" opacity="1.000000" stroke="none" 
	d="
M57.021126,103.452087 
	C57.550823,103.270760 58.120338,103.367676 58.851639,103.711182 
	C58.362595,103.881958 57.711773,103.806145 57.021126,103.452087 
z"/>
<path fill="#2AC546" opacity="1.000000" stroke="none" 
	d="
M110.000793,97.999496 
	C110.318497,98.590462 110.635399,99.181946 110.952309,99.773422 
	C110.730972,99.856255 110.509636,99.939087 110.288300,100.021919 
	C110.195953,99.538261 110.103600,99.054596 110.004761,98.286339 
	C109.998283,98.001740 110.000000,98.000000 110.000793,97.999496 
z"/>
<path fill="#2AC546" opacity="1.000000" stroke="none" 
	d="
M53.053951,101.827866 
	C53.456043,101.724190 53.962505,101.904968 54.614944,102.326485 
	C54.226719,102.415588 53.692520,102.263954 53.053951,101.827866 
z"/>
<path fill="#53EB80" opacity="1.000000" stroke="none" 
	d="
M92.998749,28.987852 
	C92.437218,29.299572 91.874428,29.885603 91.314339,29.883041 
	C75.831764,29.812201 60.349464,29.681541 45.408165,29.276104 
	C61.632389,28.990217 77.315567,28.989035 92.998749,28.987852 
z"/>
<path fill="#58EE5E" opacity="1.000000" stroke="none" 
	d="
M92.998657,28.743034 
	C77.315567,28.989035 61.632389,28.990217 45.482300,28.985888 
	C45.015388,28.980375 45.006081,28.492512 45.005272,28.248596 
	C60.690308,28.003948 76.376152,28.003218 92.530533,28.005533 
	C92.999084,28.008581 92.998558,28.498217 92.998657,28.743034 
z"/>
<path fill="#5FC373" opacity="1.000000" stroke="none" 
	d="
M56.657249,36.032150 
	C53.621376,37.655201 50.174255,39.253155 46.348198,40.831696 
	C48.230774,36.720993 52.352051,36.607098 56.657249,36.032150 
z"/>
<path fill="#5FC373" opacity="1.000000" stroke="none" 
	d="
M65.829002,33.950119 
	C63.397305,34.764095 60.611481,35.426430 57.425392,36.090454 
	C59.841709,35.327591 62.658295,34.563034 65.829002,33.950119 
z"/>
<path fill="#37D355" opacity="1.000000" stroke="none" 
	d="
M103.062408,79.001419 
	C102.959473,72.640251 102.856529,66.279091 102.652695,59.501038 
	C103.735695,60.140816 104.919579,61.197479 106.005844,62.167015 
	C107.764915,62.622242 109.598763,63.096825 111.704590,63.782677 
	C111.945206,66.084190 111.913841,68.174423 111.841209,70.719666 
	C111.531937,72.736732 111.463326,74.371010 110.932114,75.837746 
	C110.515762,76.987328 109.526772,77.929504 108.146500,78.754471 
	C107.055016,77.514069 106.609245,76.483032 106.180519,75.491409 
	C104.967896,76.856438 104.015160,77.928932 103.062408,79.001419 
z"/>
<path fill="#37D355" opacity="1.000000" stroke="none" 
	d="
M105.458923,57.526844 
	C105.433517,57.481106 105.484329,57.572582 105.458923,57.526844 
z"/>
<path fill="#E4E9E3" opacity="1.000000" stroke="none" 
	d="
M37.644821,88.136520 
	C38.678867,89.886391 39.397667,91.790390 40.116467,93.694382 
	C39.619503,93.887978 39.122540,94.081566 38.625576,94.275154 
	C38.271557,93.340805 37.917538,92.406448 37.337524,91.249069 
	C37.184204,90.114250 37.256886,89.202454 37.644821,88.136520 
z"/>
<path fill="#30CE4C" opacity="1.000000" stroke="none" 
	d="
M37.986298,86.006531 
	C37.986298,86.006531 37.902981,86.497101 37.852581,86.740646 
	C37.534138,86.872025 37.313622,86.699219 37.028713,86.286186 
	C36.916801,86.106590 37.093437,85.916756 37.365929,85.882797 
	C37.638416,85.848839 37.986298,86.006531 37.986298,86.006531 
z"/>
<path fill="#5AE072" opacity="1.000000" stroke="none" 
	d="
M34.787437,49.659843 
	C34.262852,52.671780 33.548630,55.359379 32.922310,57.716209 
	C31.464886,56.128590 30.073532,54.612938 28.344574,53.028259 
	C28.229929,47.411903 29.461599,46.734715 34.787437,49.659843 
z"/>
<path fill="#5AE072" opacity="1.000000" stroke="none" 
	d="
M24.999466,39.000320 
	C25.410021,40.903980 25.821112,42.807323 26.232203,44.710667 
	C25.823250,44.750626 25.414295,44.790585 25.005342,44.830544 
	C25.005342,43.159752 25.005342,41.488964 25.003290,39.408463 
	C25.001238,38.998756 25.000000,39.000000 24.999466,39.000320 
z"/>
<path fill="#5AE072" opacity="1.000000" stroke="none" 
	d="
M27.636696,53.009804 
	C27.654696,53.505589 27.350552,54.004089 27.046410,54.502594 
	C26.731955,54.198318 26.417496,53.894043 26.064291,53.303722 
	C26.455214,53.015957 26.884884,53.014240 27.636696,53.009804 
z"/>
<path fill="#E4E9E3" opacity="1.000000" stroke="none" 
	d="
M38.237755,85.800018 
	C37.986298,86.006531 37.638416,85.848839 37.456726,85.790253 
	C36.175850,82.075104 35.076668,78.418541 33.861603,74.379028 
	C33.924053,70.051094 34.102379,66.106117 34.294067,61.717468 
	C34.307426,61.273800 34.262432,61.157509 34.473045,60.939644 
	C34.903576,59.844212 35.123493,58.966644 35.343407,58.089073 
	C36.078808,56.532352 36.814213,54.975636 37.798256,53.208778 
	C39.526024,53.576885 41.005150,54.155125 42.757690,55.195290 
	C43.008678,56.071365 42.986244,56.485512 42.690266,57.139317 
	C41.937057,59.231014 41.457397,61.083050 40.627750,63.181126 
	C40.430489,67.649155 40.583218,71.871140 40.737579,76.456558 
	C41.420269,77.905693 42.101326,78.991417 42.727127,80.339386 
	C42.454075,81.065887 42.236267,81.530136 42.018463,81.994385 
	C40.842045,83.194092 39.665630,84.393791 38.237755,85.800018 
z"/>
<path fill="#3BD455" opacity="1.000000" stroke="none" 
	d="
M35.020248,58.246666 
	C35.123493,58.966644 34.903576,59.844212 34.412281,60.925682 
	C34.326298,60.221138 34.511688,59.312698 35.020248,58.246666 
z"/>
<path fill="#29D046" opacity="1.000000" stroke="none" 
	d="
M102.943375,79.148026 
	C104.015160,77.928932 104.967896,76.856438 106.180519,75.491409 
	C106.609245,76.483032 107.055016,77.514069 107.750534,78.774292 
	C108.329849,80.422340 108.659424,81.841202 108.995300,83.627960 
	C107.006615,83.787636 104.634201,90.585136 103.004372,82.920029 
	C102.951706,81.335701 102.895096,80.503891 102.838486,79.672081 
	C102.838486,79.672081 102.824326,79.294640 102.943375,79.148026 
z"/>
<path fill="#2AC546" opacity="1.000000" stroke="none" 
	d="
M112.253876,87.963440 
	C112.037071,87.913689 112.030098,87.733604 112.019897,87.283363 
	C112.016663,87.013206 112.433067,86.992485 112.640236,86.975693 
	C112.871643,87.317078 112.743744,87.608475 112.253876,87.963440 
z"/>
<path fill="#50E469" opacity="1.000000" stroke="none" 
	d="
M44.887920,53.470367 
	C54.576569,37.982224 78.254807,36.101509 90.025475,49.885826 
	C90.995483,51.021790 91.959740,52.162651 92.629547,53.651070 
	C87.152496,53.999279 81.956116,53.740177 76.797394,54.070023 
	C71.853340,54.386147 66.948387,55.313572 61.852028,55.742416 
	C61.323238,55.375500 60.968658,55.238506 60.333336,54.921913 
	C58.413193,54.231792 56.773800,53.721275 55.019226,53.028572 
	C54.673107,53.013821 54.442162,53.181248 54.274803,53.403534 
	C54.338390,53.458393 54.362480,53.624626 54.034935,53.503990 
	C52.822384,54.169399 52.026936,55.124920 51.010410,55.662090 
	C50.574463,55.892467 49.678902,55.253090 49.104847,54.737389 
	C49.353600,53.901592 49.489674,53.337296 49.955112,51.407150 
	C47.742607,53.494308 46.485584,54.680115 45.098248,55.988857 
	C45.020805,55.061554 44.954365,54.265961 44.887920,53.470367 
z"/>
<path fill="#25C740" opacity="1.000000" stroke="none" 
	d="
M42.269585,82.162521 
	C42.236267,81.530136 42.454075,81.065887 43.023239,80.323685 
	C43.571899,80.033936 43.769203,80.022141 43.981827,80.006744 
	C43.997150,80.003143 43.989723,80.033882 44.001686,80.397995 
	C46.996651,85.715599 55.164318,90.176369 58.975399,87.487381 
	C63.535492,84.269913 67.063858,84.960991 71.365791,86.809181 
	C72.473511,87.285080 73.978561,86.836174 75.678833,86.760925 
	C77.331497,86.787102 78.606415,86.864471 80.167946,86.968872 
	C80.950340,86.762131 81.446106,86.528351 82.106552,86.129120 
	C82.271217,85.963669 82.727020,85.862671 83.099823,85.904663 
	C86.111290,85.840462 88.973694,84.318314 91.146652,87.159286 
	C84.983009,94.221680 77.639481,99.184692 67.869530,98.336243 
	C63.468563,97.954041 59.187023,96.196686 54.224567,94.781906 
	C52.401009,94.661522 51.204178,94.822502 50.007351,94.983490 
	C49.831123,94.982986 49.654900,94.982475 48.793507,95.044174 
	C46.078598,95.067291 44.048859,95.028206 42.019112,94.989113 
	C42.636726,93.231438 43.254345,91.473763 44.011436,89.074310 
	C44.035992,87.301102 43.921062,86.169670 43.806137,85.038231 
	C43.377659,84.135712 42.949181,83.233185 42.269585,82.162521 
z"/>
<path fill="#39D655" opacity="1.000000" stroke="none" 
	d="
M96.849060,62.003967 
	C97.005966,62.638905 97.162872,63.273838 97.189972,64.663116 
	C96.343582,68.354919 95.626999,71.292381 94.910408,74.229843 
	C94.666405,73.770493 94.422401,73.311142 94.178398,72.851791 
	C90.448112,73.238899 86.717834,73.626007 82.692123,73.984436 
	C81.921417,73.641853 81.446129,73.327957 81.116638,72.881760 
	C80.838860,72.828316 80.415283,72.907158 79.612076,72.985703 
	C78.175491,73.696396 77.118530,74.407394 76.053757,75.078186 
	C76.045929,75.037987 76.127823,75.036324 75.881927,75.137672 
	C75.433548,75.521973 75.231056,75.804924 75.039490,76.051727 
	C75.050415,76.015587 75.093597,76.077545 74.703041,76.042679 
	C71.173164,75.028450 68.033844,74.049088 64.925957,73.047394 
	C64.957390,73.025055 64.969040,73.101295 64.860748,72.857628 
	C64.461266,72.420959 64.170067,72.227951 63.917873,72.038864 
	C63.956875,72.042786 63.929012,72.116066 63.917622,71.767891 
	C62.948849,69.656212 61.991467,67.892708 61.119610,65.798660 
	C61.814953,64.315315 62.424774,63.162514 63.411850,62.017513 
	C65.263390,62.596508 66.740776,63.661469 68.211418,63.652241 
	C74.138969,63.615055 80.063576,63.087894 85.990974,63.056011 
	C89.883057,63.035080 93.724464,63.421711 95.702438,59.021500 
	C95.863747,59.345303 96.025047,59.669102 96.128273,60.628601 
	C96.043121,61.507206 96.016052,61.750111 95.767540,62.166771 
	C95.506447,62.856468 95.466797,63.372402 95.427147,63.888332 
	C95.580742,63.891720 95.734337,63.895103 95.887924,63.898487 
	C95.929565,63.269920 95.971199,62.641350 96.221909,62.011131 
	C96.430969,62.009480 96.849060,62.003967 96.849060,62.003967 
z"/>
<path fill="#42DD5C" opacity="1.000000" stroke="none" 
	d="
M95.689491,58.704216 
	C93.724464,63.421711 89.883057,63.035080 85.990974,63.056011 
	C80.063576,63.087894 74.138969,63.615055 68.211418,63.652241 
	C66.740776,63.661469 65.263390,62.596508 63.306244,61.812286 
	C62.823376,61.599255 62.763550,61.141724 63.044666,60.924896 
	C62.892601,59.129498 62.459423,57.550919 62.026245,55.972340 
	C66.948387,55.313572 71.853340,54.386147 76.797394,54.070023 
	C81.956116,53.740177 87.152496,53.999279 92.717125,53.983467 
	C93.960075,55.439663 94.818306,56.913300 95.689491,58.704216 
z"/>
<path fill="#35CA50" opacity="1.000000" stroke="none" 
	d="
M82.987549,74.013107 
	C86.717834,73.626007 90.448112,73.238899 94.178398,72.851791 
	C94.422401,73.311142 94.666405,73.770493 94.910408,74.229843 
	C95.626999,71.292381 96.343582,68.354919 97.074646,64.972893 
	C98.949966,72.295013 97.974365,79.422707 91.925873,85.905975 
	C91.261627,86.549477 91.119041,86.835197 91.060738,87.163010 
	C91.060738,87.163010 91.100456,87.098732 91.123550,87.129013 
	C88.973694,84.318314 86.111290,85.840462 83.294922,85.616074 
	C84.358711,82.763023 85.600189,80.240547 86.779854,77.365799 
	C85.474548,76.013382 84.231049,75.013245 82.987549,74.013107 
z"/>
<path fill="#4BDB61" opacity="1.000000" stroke="none" 
	d="
M44.654282,53.659859 
	C44.954365,54.265961 45.020805,55.061554 45.098248,55.988857 
	C46.485584,54.680115 47.742607,53.494308 49.955112,51.407150 
	C49.489674,53.337296 49.353600,53.901592 48.851791,54.963577 
	C47.680862,57.120609 46.875675,58.779953 45.710590,61.180977 
	C44.460892,59.233109 43.712349,58.066383 42.963810,56.899658 
	C42.986244,56.485512 43.008678,56.071365 43.073421,55.348045 
	C43.550701,54.642368 43.985668,54.245861 44.654282,53.659859 
z"/>
<path fill="#E4E9E3" opacity="1.000000" stroke="none" 
	d="
M43.573177,85.136124 
	C43.921062,86.169670 44.035992,87.301102 44.013260,88.715652 
	C42.793392,89.210701 41.711174,89.422638 40.304520,89.698112 
	C40.203430,87.161049 39.188923,84.494446 43.573177,85.136124 
z"/>
<path fill="#D5E1D5" opacity="1.000000" stroke="none" 
	d="
M41.835350,95.199791 
	C44.048859,95.028206 46.078598,95.067291 48.543846,95.131042 
	C43.914875,98.152893 43.528107,98.166344 41.835350,95.199791 
z"/>
<path fill="#D5E1D5" opacity="1.000000" stroke="none" 
	d="
M50.410610,95.003815 
	C51.204178,94.822502 52.401009,94.661522 53.822777,94.736206 
	C52.969765,94.989304 51.891819,95.006729 50.410610,95.003815 
z"/>
<path fill="#37D355" opacity="1.000000" stroke="none" 
	d="
M102.621094,79.938553 
	C102.895096,80.503891 102.951706,81.335701 103.003548,82.583145 
	C102.769997,82.979378 102.541206,82.959969 101.972961,82.879181 
	C101.890244,81.946861 102.146973,81.075943 102.621094,79.938553 
z"/>
<path fill="#25C740" opacity="1.000000" stroke="none" 
	d="
M91.302689,87.065186 
	C91.119041,86.835197 91.261627,86.549477 91.688187,86.170181 
	C91.773460,86.345467 91.659050,86.656410 91.302689,87.065186 
z"/>
<path fill="#42DD5C" opacity="1.000000" stroke="none" 
	d="
M95.988983,61.993011 
	C96.016052,61.750111 96.043121,61.507206 96.135849,60.902039 
	C96.421532,60.837887 96.641579,61.135990 96.855339,61.719032 
	C96.849060,62.003967 96.430969,62.009480 96.216034,62.005249 
	C96.001099,62.001019 95.988983,61.993011 95.988983,61.993011 
z"/>
<path fill="#31CD4B" opacity="1.000000" stroke="none" 
	d="
M75.301079,86.812103 
	C73.978561,86.836174 72.473511,87.285080 71.365791,86.809181 
	C67.063858,84.960991 63.535492,84.269913 58.975399,87.487381 
	C55.164318,90.176369 46.996651,85.715599 44.127956,80.337936 
	C44.150349,79.945946 44.058430,79.978142 43.966507,80.010345 
	C43.769203,80.022141 43.571899,80.033936 43.078491,80.061432 
	C42.101326,78.991417 41.420269,77.905693 41.003967,76.316788 
	C41.515648,75.591980 41.797760,75.148384 42.004360,75.181137 
	C47.438587,76.042526 52.865002,76.953201 58.641418,77.845398 
	C64.427086,80.827606 69.864082,83.819855 75.301079,86.812103 
z"/>
<path fill="#33D24F" opacity="1.000000" stroke="none" 
	d="
M58.292755,77.855438 
	C52.865002,76.953201 47.438587,76.042526 42.004360,75.181137 
	C41.797760,75.148384 41.515648,75.591980 41.002335,75.953369 
	C40.583218,71.871140 40.430489,67.649155 40.641258,63.564926 
	C42.564819,68.616882 46.121758,70.245796 48.769230,67.933891 
	C50.451378,68.675285 51.870651,69.300819 53.451286,70.070435 
	C53.808533,70.436958 53.934292,70.693741 54.003014,71.338104 
	C54.683147,72.462303 55.350201,73.233269 56.216827,74.266708 
	C57.041855,75.637939 57.667305,76.746689 58.292755,77.855438 
z"/>
<path fill="#41D75D" opacity="1.000000" stroke="none" 
	d="
M53.289925,69.926353 
	C51.870651,69.300819 50.451378,68.675285 48.769230,67.933891 
	C46.121758,70.245796 42.564819,68.616882 40.991241,63.318893 
	C41.457397,61.083050 41.937057,59.231014 42.690266,57.139317 
	C43.712349,58.066383 44.460892,59.233109 45.710590,61.180977 
	C46.875675,58.779953 47.680862,57.120609 48.739113,55.235077 
	C49.678902,55.253090 50.574463,55.892467 51.010410,55.662090 
	C52.026936,55.124920 52.822384,54.169399 53.921295,53.823681 
	C49.338295,59.241116 51.064171,64.570244 53.289925,69.926353 
z"/>
<path fill="#E3E9E3" opacity="1.000000" stroke="none" 
	d="
M53.451286,70.070435 
	C51.064171,64.570244 49.338295,59.241116 54.248840,53.944321 
	C54.362480,53.624626 54.338390,53.458393 54.518272,53.464012 
	C54.843575,53.383335 54.988991,53.297047 55.134403,53.210758 
	C56.773800,53.721275 58.413193,54.231792 60.402927,55.287354 
	C61.423363,57.602173 62.093456,59.371948 62.763550,61.141724 
	C62.763550,61.141724 62.823376,61.599255 62.928986,61.804482 
	C62.424774,63.162514 61.814953,64.315315 60.891403,65.989197 
	C61.694782,68.378876 62.811897,70.247467 63.929012,72.116066 
	C63.929012,72.116066 63.956875,72.042786 63.989922,72.310669 
	C64.338326,72.752808 64.653679,72.927048 64.969040,73.101295 
	C64.969040,73.101295 64.957390,73.025055 65.057968,73.366577 
	C66.745956,74.823196 68.303703,75.983864 69.928360,77.041763 
	C71.917297,78.336884 73.823463,78.810143 75.093597,76.077545 
	C75.093597,76.077545 75.050415,76.015587 75.310081,75.988785 
	C75.755775,75.653427 75.941795,75.344872 76.127823,75.036324 
	C76.127823,75.036324 76.045929,75.037987 76.373413,74.915627 
	C80.081154,75.768204 83.461411,76.743141 86.841667,77.718071 
	C85.600189,80.240547 84.358711,82.763023 82.922119,85.574081 
	C82.727020,85.862671 82.271217,85.963669 81.825615,86.077560 
	C80.880447,86.441582 80.380890,86.691704 79.881325,86.941833 
	C78.606415,86.864471 77.331497,86.787102 75.678833,86.760925 
	C69.864082,83.819855 64.427086,80.827606 58.641422,77.845406 
	C57.667305,76.746689 57.041855,75.637939 56.192616,73.949738 
	C55.309196,72.575142 54.649567,71.780006 53.989933,70.984863 
	C53.934292,70.693741 53.808533,70.436958 53.451286,70.070435 
z"/>
<path fill="#39D655" opacity="1.000000" stroke="none" 
	d="
M63.044666,60.924896 
	C62.093456,59.371948 61.423363,57.602173 60.683674,55.466957 
	C60.968658,55.238506 61.323238,55.375500 61.852028,55.742416 
	C62.459423,57.550919 62.892601,59.129498 63.044666,60.924896 
z"/>
<path fill="#41D75D" opacity="1.000000" stroke="none" 
	d="
M55.019226,53.028572 
	C54.988991,53.297047 54.843575,53.383335 54.454689,53.409153 
	C54.442162,53.181248 54.673107,53.013821 55.019226,53.028572 
z"/>
<path fill="#35CA50" opacity="1.000000" stroke="none" 
	d="
M80.167946,86.968872 
	C80.380890,86.691704 80.880447,86.441582 81.660950,86.243011 
	C81.446106,86.528351 80.950340,86.762131 80.167946,86.968872 
z"/>
<path fill="#37B651" opacity="1.000000" stroke="none" 
	d="
M74.703041,76.042679 
	C73.823463,78.810143 71.917297,78.336884 69.928360,77.041763 
	C68.303703,75.983864 66.745956,74.823196 65.026535,73.388908 
	C68.033844,74.049088 71.173164,75.028450 74.703041,76.042679 
z"/>
<path fill="#37B651" opacity="1.000000" stroke="none" 
	d="
M86.779854,77.365799 
	C83.461411,76.743141 80.081154,75.768204 76.381241,74.955826 
	C77.118530,74.407394 78.175491,73.696396 79.856834,72.994751 
	C80.481224,73.004105 80.970840,73.014061 80.970840,73.014061 
	C81.446129,73.327957 81.921417,73.641853 82.692123,73.984428 
	C84.231049,75.013245 85.474548,76.013382 86.779854,77.365799 
z"/>
<path fill="#37B651" opacity="1.000000" stroke="none" 
	d="
M63.917622,71.767891 
	C62.811897,70.247467 61.694782,68.378876 60.805878,66.319740 
	C61.991467,67.892708 62.948849,69.656212 63.917622,71.767891 
z"/>
<path fill="#42DD5C" opacity="1.000000" stroke="none" 
	d="
M96.006973,62.006897 
	C95.971199,62.641350 95.929565,63.269920 95.887924,63.898487 
	C95.734337,63.895103 95.580742,63.891720 95.427147,63.888332 
	C95.466797,63.372402 95.506447,62.856468 95.767540,62.166771 
	C95.988983,61.993011 96.001099,62.001019 96.006973,62.006897 
z"/>
<path fill="#35CA50" opacity="1.000000" stroke="none" 
	d="
M81.116638,72.881760 
	C80.970840,73.014061 80.481224,73.004105 80.236465,72.995056 
	C80.415283,72.907158 80.838860,72.828316 81.116638,72.881760 
z"/>
<path fill="#37B651" opacity="1.000000" stroke="none" 
	d="
M75.881927,75.137672 
	C75.941795,75.344872 75.755775,75.653427 75.299164,76.024925 
	C75.231056,75.804924 75.433548,75.521973 75.881927,75.137672 
z"/>
<path fill="#37B651" opacity="1.000000" stroke="none" 
	d="
M64.860748,72.857628 
	C64.653679,72.927048 64.338326,72.752808 63.950920,72.306755 
	C64.170067,72.227951 64.461266,72.420959 64.860748,72.857628 
z"/>
<path fill="#33D24F" opacity="1.000000" stroke="none" 
	d="
M43.981827,80.006744 
	C44.058430,79.978142 44.150349,79.945946 44.115997,79.973816 
	C43.989723,80.033882 43.997150,80.003143 43.981827,80.006744 
z"/>
<path fill="#31CD4B" opacity="1.000000" stroke="none" 
	d="
M54.003014,71.338104 
	C54.649567,71.780006 55.309196,72.575142 55.993042,73.687256 
	C55.350201,73.233269 54.683147,72.462303 54.003014,71.338104 
z"/>
</svg>