<svg version="1.1" id="Layer_1" xmlns="http://www.w3.org/2000/svg" xmlns:xlink="http://www.w3.org/1999/xlink" x="0px" y="0px"
	 width="100%" viewBox="0 0 130 64" enable-background="new 0 0 130 64" xml:space="preserve">
<path fill="#FEFDFD" opacity="1.000000" stroke="none" 
	d="
M116.000000,65.000000 
	C79.979103,65.000000 43.958210,65.000000 7.468233,64.531342 
	C6.999434,43.041790 6.999717,22.020895 7.000000,1.000000 
	C43.020893,1.000000 79.041786,1.000000 115.531769,1.468657 
	C116.000565,22.958210 116.000282,43.979103 116.000000,65.000000 
M53.156460,30.891029 
	C52.583370,30.172327 52.010277,29.453627 51.437187,28.734926 
	C51.017498,29.014059 50.597809,29.293192 50.178120,29.572323 
	C51.096043,31.906469 52.013966,34.240616 53.189899,37.231152 
	C53.606598,39.232220 54.023296,41.233288 54.439995,43.234360 
	C54.663002,43.276421 54.886009,43.318481 55.109016,43.360542 
	C55.410454,41.253860 55.711887,39.147175 56.720654,37.305698 
	C57.144039,40.372257 56.981506,44.597244 61.708302,43.083828 
	C63.966393,42.360844 65.307854,41.963242 67.241081,43.312035 
	C67.755150,43.670696 69.062653,42.892139 70.505432,43.049866 
	C71.368027,42.900814 72.230621,42.751762 73.544632,43.056950 
	C74.672089,42.765228 75.799553,42.473503 77.226471,42.819336 
	C78.819588,42.833839 80.412712,42.848343 82.573067,43.231918 
	C83.714722,43.158295 84.856369,43.084671 86.604294,43.217224 
	C88.644341,42.584675 91.616447,40.763042 92.572975,41.512806 
	C98.720818,46.331749 98.605804,41.616817 98.804214,37.667709 
	C98.885292,36.053871 98.392365,33.201576 97.623428,33.004086 
	C95.974648,32.580624 93.976532,33.517288 91.409233,34.042805 
	C90.095528,32.644920 88.072952,30.492743 85.258675,28.266172 
	C83.284973,32.320831 79.632935,35.806225 80.164589,40.678757 
	C80.077248,38.927879 80.308990,37.072739 79.783646,35.464981 
	C79.465355,34.490871 77.974861,33.899784 76.325844,32.816280 
	C76.774460,31.652876 77.223068,30.489473 77.768188,29.075794 
	C75.483948,29.075794 73.297470,29.075794 72.412971,29.075794 
	C72.662727,33.755524 72.901115,38.222168 72.376900,43.178524 
	C71.551933,42.852360 70.726959,42.526192 69.937630,42.094509 
	C69.937630,42.094509 69.826843,42.083122 69.811363,41.204884 
	C69.980164,38.311413 70.148964,35.417946 70.304718,32.747971 
	C69.781906,32.856247 68.615921,33.097729 66.923470,32.789829 
	C66.019798,33.301392 65.116119,33.812954 64.781693,34.002274 
	C62.232761,33.089931 59.889771,32.251301 57.451599,31.378601 
	C57.480259,30.771877 57.525532,29.813536 57.570805,28.855192 
	C57.171040,28.740534 56.771271,28.625875 56.371506,28.511217 
	C55.913242,29.671885 55.454983,30.832550 54.414772,32.416019 
	C53.997635,32.188354 53.580498,31.960686 53.156460,30.891029 
M47.463631,41.616341 
	C47.623890,39.149094 47.783192,36.681782 47.944622,34.214611 
	C48.245335,29.618586 46.192921,27.471035 41.497540,27.681591 
	C37.203259,27.874161 32.889542,27.667873 28.600061,27.912342 
	C27.264782,27.988441 24.928013,28.839890 24.846792,29.543760 
	C24.379435,33.593895 23.811104,37.851696 24.688816,41.718643 
	C24.995583,43.070168 29.335848,44.273220 31.798988,44.208393 
	C36.908688,44.073917 41.994858,43.045410 47.463631,41.616341 
z"/>
<path fill="#F1F3F4" opacity="1.000000" stroke="none" 
	d="
M116.472664,65.000000 
	C116.000282,43.979103 116.000565,22.958210 116.000427,1.468657 
	C120.976189,1.000000 125.952370,1.000000 130.933945,1.000026 
	C130.939331,22.333397 130.939331,43.666740 130.939331,65.000000 
	C126.234207,65.000000 121.589767,65.000000 116.472664,65.000000 
z"/>
<path fill="#F1F3F4" opacity="1.000000" stroke="none" 
	d="
M6.500528,1.000000 
	C6.999717,22.020895 6.999434,43.041790 6.999576,64.531342 
	C5.013216,65.000000 3.026433,65.000000 1.019825,65.000000 
	C1.019825,43.666668 1.019825,22.333336 1.026972,1.000001 
	C2.689765,1.000000 4.345411,1.000000 6.500528,1.000000 
z"/>
<path fill="#FE0909" opacity="1.000000" stroke="none" 
	d="
M47.277164,42.000404 
	C41.994858,43.045410 36.908688,44.073917 31.798988,44.208393 
	C29.335848,44.273220 24.995583,43.070168 24.688816,41.718643 
	C23.811104,37.851696 24.379435,33.593895 24.846792,29.543760 
	C24.928013,28.839890 27.264782,27.988441 28.600061,27.912342 
	C32.889542,27.667873 37.203259,27.874161 41.497540,27.681591 
	C46.192921,27.471035 48.245335,29.618586 47.944622,34.214611 
	C47.783192,36.681782 47.623890,39.149094 47.277164,42.000404 
z"/>
<path fill="#424242" opacity="1.000000" stroke="none" 
	d="
M70.005859,42.635719 
	C69.062653,42.892139 67.755150,43.670696 67.241081,43.312035 
	C65.307854,41.963242 63.966393,42.360844 61.708302,43.083828 
	C56.981506,44.597244 57.144039,40.372257 56.210068,36.833412 
	C55.465225,34.905155 55.230972,33.449184 54.996719,31.993217 
	C55.454983,30.832550 55.913242,29.671885 56.371506,28.511217 
	C56.771271,28.625875 57.171040,28.740534 57.570805,28.855192 
	C57.525532,29.813536 57.480259,30.771877 57.451599,31.378601 
	C59.889771,32.251301 62.232761,33.089931 64.781693,34.002274 
	C65.116119,33.812954 66.019798,33.301392 67.045616,33.519485 
	C67.627350,37.005329 64.992264,40.811939 69.826843,42.083122 
	C69.826843,42.083122 69.937630,42.094509 69.904739,42.265976 
	C69.871841,42.437439 70.005859,42.635719 70.005859,42.635719 
z"/>
<path fill="#3B3B3B" opacity="1.000000" stroke="none" 
	d="
M86.050369,28.340563 
	C88.072952,30.492743 90.095528,32.644920 91.409233,34.042805 
	C93.976532,33.517288 95.974648,32.580624 97.623428,33.004086 
	C98.392365,33.201576 98.885292,36.053871 98.804214,37.667709 
	C98.605804,41.616817 98.720818,46.331749 92.572975,41.512806 
	C91.616447,40.763042 88.644341,42.584675 86.300446,42.648750 
	C86.014519,37.500370 86.032448,32.920467 86.050369,28.340563 
M87.220284,40.039803 
	C88.022636,40.072521 88.824997,40.105240 89.627350,40.137955 
	C89.627350,38.264782 89.627350,36.391613 89.627350,34.518440 
	C88.993645,34.490368 88.359940,34.462296 87.726234,34.434219 
	C87.498123,36.050686 87.270012,37.667149 87.220284,40.039803 
z"/>
<path fill="#505050" opacity="1.000000" stroke="none" 
	d="
M73.139496,42.688808 
	C72.901115,38.222168 72.662727,33.755524 72.412971,29.075794 
	C73.297470,29.075794 75.483948,29.075794 77.768188,29.075794 
	C77.223068,30.489473 76.774460,31.652876 76.659378,33.423775 
	C76.970947,36.748104 76.948982,39.464939 76.927010,42.181778 
	C75.799553,42.473503 74.672089,42.765228 73.295776,42.846046 
	C73.046913,42.635139 73.139496,42.688808 73.139496,42.688808 
z"/>
<path fill="#535353" opacity="1.000000" stroke="none" 
	d="
M85.654526,28.303368 
	C86.032448,32.920467 86.014519,37.500370 85.997307,42.545662 
	C84.856369,43.084671 83.714722,43.158295 82.363770,42.833954 
	C81.752197,41.949406 81.349922,41.462830 80.947639,40.976250 
	C79.632935,35.806225 83.284973,32.320831 85.654526,28.303368 
z"/>
<path fill="#444444" opacity="1.000000" stroke="none" 
	d="
M80.556114,40.827503 
	C81.349922,41.462830 81.752197,41.949406 82.080154,42.649418 
	C80.412712,42.848343 78.819588,42.833839 77.076736,42.500557 
	C76.948982,39.464939 76.970947,36.748104 77.001968,33.583942 
	C77.974861,33.899784 79.465355,34.490871 79.783646,35.464981 
	C80.308990,37.072739 80.077248,38.927879 80.556114,40.827503 
z"/>
<path fill="#606060" opacity="1.000000" stroke="none" 
	d="
M69.819107,41.644005 
	C64.992264,40.811939 67.627350,37.005329 67.308846,33.794178 
	C68.615921,33.097729 69.781906,32.856247 70.304718,32.747971 
	C70.148964,35.417946 69.980164,38.311413 69.819107,41.644005 
z"/>
<path fill="#5E5E5E" opacity="1.000000" stroke="none" 
	d="
M54.705746,32.204620 
	C55.230972,33.449184 55.465225,34.905155 55.856400,36.700806 
	C55.711887,39.147175 55.410454,41.253860 55.109016,43.360542 
	C54.886009,43.318481 54.663002,43.276421 54.439995,43.234360 
	C54.023296,41.233288 53.606598,39.232220 53.099880,36.418877 
	C53.061028,34.315411 53.112194,33.024212 53.163361,31.733017 
	C53.580498,31.960686 53.997635,32.188354 54.705746,32.204620 
z"/>
<path fill="#424242" opacity="1.000000" stroke="none" 
	d="
M53.159912,31.312023 
	C53.112194,33.024212 53.061028,34.315411 52.970871,36.090683 
	C52.013966,34.240616 51.096043,31.906469 50.178120,29.572323 
	C50.597809,29.293192 51.017498,29.014059 51.437187,28.734926 
	C52.010277,29.453627 52.583370,30.172327 53.159912,31.312023 
z"/>
<path fill="#606060" opacity="1.000000" stroke="none" 
	d="
M72.758194,42.933666 
	C73.139496,42.688808 73.046913,42.635139 73.070068,42.618927 
	C72.230621,42.751762 71.368027,42.900814 70.255646,42.842793 
	C70.005859,42.635719 69.871841,42.437439 69.886917,42.318733 
	C70.726959,42.526192 71.551933,42.852360 72.758194,42.933666 
z"/>
<path fill="#535353" opacity="1.000000" stroke="none" 
	d="
M87.131088,39.661705 
	C87.270012,37.667149 87.498123,36.050686 87.726234,34.434219 
	C88.359940,34.462296 88.993645,34.490368 89.627350,34.518440 
	C89.627350,36.391613 89.627350,38.264782 89.627350,40.137955 
	C88.824997,40.105240 88.022636,40.072521 87.131088,39.661705 
z"/>
</svg>